<svg width="66" height="66" viewBox="0 0 66 66" fill="none" xmlns="http://www.w3.org/2000/svg">
<g clip-path="url(#clip0_2_9)">
<mask id="mask0_2_9" style="mask-type:luminance" maskUnits="userSpaceOnUse" x="0" y="0" width="66" height="66">
<path d="M66 0H0V66H66V0Z" fill="white"/>
</mask>
<g mask="url(#mask0_2_9)">
<g filter="url(#filter0_dd_2_9)">
<path d="M43 2H23C11.9543 2 3 10.9543 3 22V42C3 53.0457 11.9543 62 23 62H43C54.0457 62 63 53.0457 63 42V22C63 10.9543 54.0457 2 43 2Z" fill="white" fill-opacity="0.1"/>
</g>
<path d="M41 29C46.5228 29 51 24.5228 51 19C51 13.4772 46.5228 9 41 9C35.4772 9 31 13.4772 31 19C31 24.5228 35.4772 29 41 29Z" fill="#F73722"/>
<mask id="mask1_2_9" style="mask-type:luminance" maskUnits="userSpaceOnUse" x="13" y="13" width="40" height="40">
<path d="M53 13H13V53H53V13Z" fill="white"/>
</mask>
<g mask="url(#mask1_2_9)">
<path d="M23.8889 33.8888H42.1111V37.311H43.8889V32.111H33.8889V28.5554H32.1111V32.111H22.1111V37.311H23.8889V33.8888Z" fill="white"/>
<path d="M28.5556 38.5554H17.4445C16.8551 38.5554 16.2899 38.7896 15.8731 39.2063C15.4564 39.6231 15.2222 40.1883 15.2222 40.7777V47.4443C15.2222 48.0337 15.4564 48.5989 15.8731 49.0157C16.2899 49.4324 16.8551 49.6666 17.4445 49.6666H28.5556C29.1449 49.6666 29.7102 49.4324 30.1269 49.0157C30.5437 48.5989 30.7778 48.0337 30.7778 47.4443V40.7777C30.7778 40.1883 30.5437 39.6231 30.1269 39.2063C29.7102 38.7896 29.1449 38.5554 28.5556 38.5554ZM17.4445 47.4443V40.7777H28.5556V47.4443H17.4445Z" fill="white"/>
<path d="M48.5556 38.5554H37.4445C36.8551 38.5554 36.2899 38.7896 35.8731 39.2063C35.4564 39.6231 35.2222 40.1883 35.2222 40.7777V47.4443C35.2222 48.0337 35.4564 48.5989 35.8731 49.0157C36.2899 49.4324 36.8551 49.6666 37.4445 49.6666H48.5556C49.1449 49.6666 49.7102 49.4324 50.1269 49.0157C50.5437 48.5989 50.7778 48.0337 50.7778 47.4443V40.7777C50.7778 40.1883 50.5437 39.6231 50.1269 39.2063C49.7102 38.7896 49.1449 38.5554 48.5556 38.5554ZM37.4445 47.4443V40.7777H48.5556V47.4443H37.4445Z" fill="white"/>
<path d="M27.4445 27.4445H38.5556C39.1449 27.4445 39.7102 27.2104 40.1269 26.7936C40.5437 26.3769 40.7778 25.8116 40.7778 25.2223V18.5556C40.7778 17.9662 40.5437 17.401 40.1269 16.9842C39.7102 16.5675 39.1449 16.3334 38.5556 16.3334H27.4445C26.8551 16.3334 26.2899 16.5675 25.8731 16.9842C25.4564 17.401 25.2222 17.9662 25.2222 18.5556V25.2223C25.2222 25.8116 25.4564 26.3769 25.8731 26.7936C26.2899 27.2104 26.8551 27.4445 27.4445 27.4445ZM27.4445 18.5556H38.5556V25.2223H27.4445V18.5556Z" fill="white"/>
</g>
</g>
</g>
<defs>
<filter id="filter0_dd_2_9" x="0" y="0" width="66" height="66" filterUnits="userSpaceOnUse" color-interpolation-filters="sRGB">
<feFlood flood-opacity="0" result="BackgroundImageFix"/>
<feColorMatrix in="SourceAlpha" type="matrix" values="0 0 0 0 0 0 0 0 0 0 0 0 0 0 0 0 0 0 127 0" result="hardAlpha"/>
<feOffset dy="1"/>
<feGaussianBlur stdDeviation="1"/>
<feColorMatrix type="matrix" values="0 0 0 0 0 0 0 0 0 0 0 0 0 0 0 0 0 0 0.06 0"/>
<feBlend mode="normal" in2="BackgroundImageFix" result="effect1_dropShadow_2_9"/>
<feColorMatrix in="SourceAlpha" type="matrix" values="0 0 0 0 0 0 0 0 0 0 0 0 0 0 0 0 0 0 127 0" result="hardAlpha"/>
<feOffset dy="1"/>
<feGaussianBlur stdDeviation="1.5"/>
<feColorMatrix type="matrix" values="0 0 0 0 0 0 0 0 0 0 0 0 0 0 0 0 0 0 0.1 0"/>
<feBlend mode="normal" in2="effect1_dropShadow_2_9" result="effect2_dropShadow_2_9"/>
<feBlend mode="normal" in="SourceGraphic" in2="effect2_dropShadow_2_9" result="shape"/>
</filter>
<clipPath id="clip0_2_9">
<rect width="66" height="66" fill="white"/>
</clipPath>
</defs>
</svg>
