<svg width="66" height="66" viewBox="0 0 66 66" fill="none" xmlns="http://www.w3.org/2000/svg">
<g filter="url(#filter0_dd_711_170)">
<rect x="3" y="2" width="60" height="60" rx="20" fill="white"/>
</g>
<circle cx="41" cy="19" r="10" fill="#FFCC1E"/>
<g clip-path="url(#clip0_711_170)">
<path d="M23.8889 33.8889H42.1111V37.3111H43.8889V32.1111H33.8889V28.5555H32.1111V32.1111H22.1111V37.3111H23.8889V33.8889Z" fill="black"/>
<path d="M28.5556 38.5555H17.4445C16.8551 38.5555 16.2899 38.7897 15.8731 39.2064C15.4564 39.6232 15.2222 40.1884 15.2222 40.7778V47.4444C15.2222 48.0338 15.4564 48.599 15.8731 49.0158C16.2899 49.4325 16.8551 49.6667 17.4445 49.6667H28.5556C29.1449 49.6667 29.7102 49.4325 30.1269 49.0158C30.5437 48.599 30.7778 48.0338 30.7778 47.4444V40.7778C30.7778 40.1884 30.5437 39.6232 30.1269 39.2064C29.7102 38.7897 29.1449 38.5555 28.5556 38.5555ZM17.4445 47.4444V40.7778H28.5556V47.4444H17.4445Z" fill="black"/>
<path d="M48.5556 38.5555H37.4445C36.8551 38.5555 36.2899 38.7897 35.8731 39.2064C35.4564 39.6232 35.2222 40.1884 35.2222 40.7778V47.4444C35.2222 48.0338 35.4564 48.599 35.8731 49.0158C36.2899 49.4325 36.8551 49.6667 37.4445 49.6667H48.5556C49.1449 49.6667 49.7102 49.4325 50.1269 49.0158C50.5437 48.599 50.7778 48.0338 50.7778 47.4444V40.7778C50.7778 40.1884 50.5437 39.6232 50.1269 39.2064C49.7102 38.7897 49.1449 38.5555 48.5556 38.5555ZM37.4445 47.4444V40.7778H48.5556V47.4444H37.4445Z" fill="black"/>
<path d="M27.4445 27.4445H38.5556C39.1449 27.4445 39.7102 27.2104 40.1269 26.7936C40.5437 26.3769 40.7778 25.8116 40.7778 25.2223V18.5556C40.7778 17.9662 40.5437 17.401 40.1269 16.9842C39.7102 16.5675 39.1449 16.3334 38.5556 16.3334H27.4445C26.8551 16.3334 26.2899 16.5675 25.8731 16.9842C25.4564 17.401 25.2222 17.9662 25.2222 18.5556V25.2223C25.2222 25.8116 25.4564 26.3769 25.8731 26.7936C26.2899 27.2104 26.8551 27.4445 27.4445 27.4445ZM27.4445 18.5556H38.5556V25.2223H27.4445V18.5556Z" fill="black"/>
</g>
<defs>
<filter id="filter0_dd_711_170" x="0" y="0" width="66" height="66" filterUnits="userSpaceOnUse" color-interpolation-filters="sRGB">
<feFlood flood-opacity="0" result="BackgroundImageFix"/>
<feColorMatrix in="SourceAlpha" type="matrix" values="0 0 0 0 0 0 0 0 0 0 0 0 0 0 0 0 0 0 127 0" result="hardAlpha"/>
<feOffset dy="1"/>
<feGaussianBlur stdDeviation="1"/>
<feColorMatrix type="matrix" values="0 0 0 0 0 0 0 0 0 0 0 0 0 0 0 0 0 0 0.06 0"/>
<feBlend mode="normal" in2="BackgroundImageFix" result="effect1_dropShadow_711_170"/>
<feColorMatrix in="SourceAlpha" type="matrix" values="0 0 0 0 0 0 0 0 0 0 0 0 0 0 0 0 0 0 127 0" result="hardAlpha"/>
<feOffset dy="1"/>
<feGaussianBlur stdDeviation="1.5"/>
<feColorMatrix type="matrix" values="0 0 0 0 0 0 0 0 0 0 0 0 0 0 0 0 0 0 0.1 0"/>
<feBlend mode="normal" in2="effect1_dropShadow_711_170" result="effect2_dropShadow_711_170"/>
<feBlend mode="normal" in="SourceGraphic" in2="effect2_dropShadow_711_170" result="shape"/>
</filter>
<clipPath id="clip0_711_170">
<rect width="40" height="40" fill="white" transform="translate(13 13)"/>
</clipPath>
</defs>
</svg>
