<svg width="66" height="66" viewBox="0 0 66 66" fill="none" xmlns="http://www.w3.org/2000/svg">
<g clip-path="url(#clip0_2_92)">
<mask id="mask0_2_92" style="mask-type:luminance" maskUnits="userSpaceOnUse" x="0" y="0" width="66" height="66">
<path d="M66 0H0V66H66V0Z" fill="white"/>
</mask>
<g mask="url(#mask0_2_92)">
<g filter="url(#filter0_dd_2_92)">
<path d="M43 2H23C11.9543 2 3 10.9543 3 22V42C3 53.0457 11.9543 62 23 62H43C54.0457 62 63 53.0457 63 42V22C63 10.9543 54.0457 2 43 2Z" fill="white" fill-opacity="0.1"/>
</g>
<path d="M46 28C51.5228 28 56 23.5228 56 18C56 12.4772 51.5228 8 46 8C40.4772 8 36 12.4772 36 18C36 23.5228 40.4772 28 46 28Z" fill="#F73722"/>
<path d="M52.6562 19.0648C52.6741 17.9971 52.2875 17.0127 51.5677 16.2929C51.1771 15.9024 50.5439 15.9024 50.1534 16.2929C49.7629 16.6835 49.7629 17.3166 50.1534 17.7071C50.4866 18.0402 50.6652 18.5105 50.6566 19.0313C50.6483 19.5282 50.4602 20.008 50.1534 20.3148C49.5172 20.951 43.1749 26.5191 38.2217 30.8515L37.0077 29.6376C40.6237 25.5002 45.1111 20.3844 46.8663 18.4419L47.2656 18.8412C47.6561 19.2318 48.2893 19.2318 48.6798 18.8413C49.0704 18.4508 49.0704 17.8177 48.6799 17.4271L47.5459 16.293C47.3584 16.1054 47.104 16 46.8388 16C46.5736 16 46.3192 16.1054 46.1316 16.2929C45.5231 16.9014 41.8007 21.1291 38.442 24.9619C37.5388 23.5948 36.3323 22.4187 34.8973 21.5159C32.7998 20.1963 30.3545 19.5273 27.6292 19.5273C27.0296 19.5273 26.4365 19.5651 25.8663 19.6397C25.3187 19.7114 24.9329 20.2134 25.0045 20.7611C25.0762 21.3087 25.5782 21.6945 26.1258 21.6228C26.6103 21.5594 27.1161 21.5273 27.6291 21.5273C31.7788 21.5273 35.2597 23.3877 37.0648 26.5346C35.3804 28.4593 33.9332 30.1171 33.2353 30.917C31.9894 31.0868 31.0598 31.5966 30.4043 32.4709C29.7948 33.2838 29.5277 34.2546 29.2449 35.2824C28.9039 36.5217 28.5513 37.8032 27.5457 38.8087C27.2597 39.0947 27.1741 39.5248 27.3289 39.8985C27.4837 40.2722 27.8484 40.5158 28.2528 40.5158C30.9441 40.5158 33.0771 39.9422 34.5928 38.8109C35.9586 37.7913 36.7728 36.3438 36.9653 34.6056C39.5419 32.3553 50.6435 22.6531 51.5676 21.729C52.2424 21.0542 52.6392 20.0831 52.6562 19.0648ZM36.7126 32.1709C36.4121 32.4334 36.1208 32.6879 35.8407 32.9325L34.9276 32.0195C35.172 31.7394 35.4264 31.4479 35.6889 31.1473L36.7126 32.1709ZM33.3964 37.2081C32.6098 37.7953 31.563 38.1866 30.271 38.3783C30.7106 37.4942 30.9573 36.5979 31.1732 35.8129C31.6367 34.1285 31.919 33.2831 33.0611 32.9814L34.9076 34.8278C34.7043 35.8107 34.1984 36.6095 33.3964 37.2081Z" fill="white"/>
<path d="M22.744 22.5855C22.8896 22.5855 23.0376 22.5535 23.1775 22.4861C23.2673 22.4428 23.3595 22.4002 23.4515 22.3597C23.9567 22.1366 24.1855 21.5462 23.9625 21.041C23.7394 20.5358 23.1491 20.307 22.6438 20.53C22.5314 20.5796 22.4188 20.6316 22.3089 20.6845C21.8115 20.9244 21.6026 21.5221 21.8424 22.0196C22.0148 22.3771 22.372 22.5855 22.744 22.5855Z" fill="white"/>
<path d="M29.9703 41.627C29.4186 41.6216 28.9654 42.0634 28.9591 42.6156C28.916 46.46 28.3357 48.175 25.0109 48.175C23.1471 48.175 21.1911 46.8116 19.6446 44.4344C17.9392 41.813 17 38.4097 17 34.8512C17 30.2316 18.395 26.3878 20.928 24.028C21.3321 23.6515 21.3546 23.0187 20.9781 22.6146C20.6017 22.2105 19.9688 22.1881 19.5647 22.5646C18.0727 23.9546 16.9182 25.7607 16.1334 27.9327C15.3813 30.014 15 32.3418 15 34.8512C15 38.7923 16.0542 42.583 17.9681 45.525C19.8907 48.4802 22.4577 50.1751 25.0109 50.1751C27.453 50.1751 29.155 49.3157 30.0697 47.621C30.855 46.1658 30.9405 44.2859 30.959 42.6381C30.9652 42.0859 30.5226 41.6331 29.9703 41.627Z" fill="white"/>
<path d="M34.8913 26.8174C34.8913 24.9804 33.3967 23.4858 31.5597 23.4858C29.7227 23.4858 28.2281 24.9804 28.2281 26.8174C28.2281 28.6544 29.7227 30.149 31.5597 30.149C33.3967 30.149 34.8913 28.6544 34.8913 26.8174ZM30.2281 26.8174C30.2281 26.0831 30.8254 25.4858 31.5597 25.4858C32.294 25.4858 32.8913 26.0831 32.8913 26.8174C32.8913 27.5517 32.294 28.149 31.5597 28.149C30.8254 28.149 30.2281 27.5516 30.2281 26.8174Z" fill="white"/>
<path d="M23.6197 31.3464C25.4567 31.3464 26.9513 29.8518 26.9513 28.0148C26.9513 26.1778 25.4567 24.6832 23.6197 24.6832C21.7826 24.6832 20.2881 26.1778 20.2881 28.0148C20.2881 29.8518 21.7826 31.3464 23.6197 31.3464ZM23.6197 26.6832C24.3539 26.6832 24.9513 27.2806 24.9513 28.0148C24.9513 28.7491 24.3539 29.3464 23.6197 29.3464C22.8854 29.3464 22.2881 28.7491 22.2881 28.0148C22.2881 27.2806 22.8855 26.6832 23.6197 26.6832Z" fill="white"/>
<path d="M24.3993 35.6694C24.3993 33.8324 22.9047 32.3378 21.0677 32.3378C19.2306 32.3378 17.7361 33.8324 17.7361 35.6694C17.7361 37.5064 19.2306 39.001 21.0677 39.001C22.9047 39.001 24.3993 37.5064 24.3993 35.6694ZM21.0677 37.001C20.3334 37.001 19.7361 36.4037 19.7361 35.6694C19.7361 34.9351 20.3334 34.3378 21.0677 34.3378C21.8019 34.3378 22.3993 34.9351 22.3993 35.6694C22.3993 36.4036 21.8019 37.001 21.0677 37.001Z" fill="white"/>
<path d="M24.568 46.7963C26.4051 46.7963 27.8996 45.3017 27.8996 43.4647C27.8996 41.6277 26.4051 40.1332 24.568 40.1332C22.731 40.1332 21.2365 41.6277 21.2365 43.4647C21.2365 45.3017 22.731 46.7963 24.568 46.7963ZM24.568 42.1332C25.3023 42.1332 25.8997 42.7305 25.8997 43.4647C25.8997 44.199 25.3023 44.7963 24.568 44.7963C23.8338 44.7963 23.2365 44.199 23.2365 43.4647C23.2365 42.7305 23.8338 42.1332 24.568 42.1332Z" fill="white"/>
</g>
</g>
<defs>
<filter id="filter0_dd_2_92" x="0" y="0" width="66" height="66" filterUnits="userSpaceOnUse" color-interpolation-filters="sRGB">
<feFlood flood-opacity="0" result="BackgroundImageFix"/>
<feColorMatrix in="SourceAlpha" type="matrix" values="0 0 0 0 0 0 0 0 0 0 0 0 0 0 0 0 0 0 127 0" result="hardAlpha"/>
<feOffset dy="1"/>
<feGaussianBlur stdDeviation="1"/>
<feColorMatrix type="matrix" values="0 0 0 0 0 0 0 0 0 0 0 0 0 0 0 0 0 0 0.06 0"/>
<feBlend mode="normal" in2="BackgroundImageFix" result="effect1_dropShadow_2_92"/>
<feColorMatrix in="SourceAlpha" type="matrix" values="0 0 0 0 0 0 0 0 0 0 0 0 0 0 0 0 0 0 127 0" result="hardAlpha"/>
<feOffset dy="1"/>
<feGaussianBlur stdDeviation="1.5"/>
<feColorMatrix type="matrix" values="0 0 0 0 0 0 0 0 0 0 0 0 0 0 0 0 0 0 0.1 0"/>
<feBlend mode="normal" in2="effect1_dropShadow_2_92" result="effect2_dropShadow_2_92"/>
<feBlend mode="normal" in="SourceGraphic" in2="effect2_dropShadow_2_92" result="shape"/>
</filter>
<clipPath id="clip0_2_92">
<rect width="66" height="66" fill="white"/>
</clipPath>
</defs>
</svg>
