<svg width="66" height="66" viewBox="0 0 66 66" fill="none" xmlns="http://www.w3.org/2000/svg">
<g clip-path="url(#clip0_2_107)">
<mask id="mask0_2_107" style="mask-type:luminance" maskUnits="userSpaceOnUse" x="0" y="0" width="66" height="66">
<path d="M66 0H0V66H66V0Z" fill="white"/>
</mask>
<g mask="url(#mask0_2_107)">
<g filter="url(#filter0_dd_2_107)">
<path d="M43 2H23C11.9543 2 3 10.9543 3 22V42C3 53.0457 11.9543 62 23 62H43C54.0457 62 63 53.0457 63 42V22C63 10.9543 54.0457 2 43 2Z" fill="white" fill-opacity="0.1"/>
</g>
<path d="M45 28C50.5228 28 55 23.5228 55 18C55 12.4772 50.5228 8 45 8C39.4772 8 35 12.4772 35 18C35 23.5228 39.4772 28 45 28Z" fill="#F73722"/>
<path d="M33.11 23.6641C31.0668 23.6641 29.4043 25.3265 29.4043 27.3697C29.4043 29.4129 31.0667 31.0754 33.11 31.0754C35.1533 31.0754 36.8156 29.413 36.8156 27.3697C36.8155 25.3263 35.1532 23.6641 33.11 23.6641ZM33.11 29.7097C31.8197 29.7097 30.7699 28.6599 30.7699 27.3696C30.7699 26.0793 31.8197 25.0296 33.11 25.0296C34.4002 25.0296 35.45 26.0794 35.45 27.3696C35.4499 28.6599 34.4002 29.7097 33.11 29.7097Z" fill="white"/>
<path d="M49.3184 22.5352C47.9793 22.5352 46.8897 23.6248 46.8897 24.9639C46.8897 26.3031 47.9793 27.3926 49.3184 27.3926C50.6576 27.3926 51.7471 26.3031 51.7471 24.9639C51.747 23.6248 50.6575 22.5352 49.3184 22.5352ZM49.3184 26.0271C48.7322 26.0271 48.2553 25.5501 48.2553 24.9639C48.2553 24.3777 48.7321 23.9008 49.3184 23.9008C49.9047 23.9008 50.3815 24.3777 50.3815 24.9639C50.3815 25.5502 49.9046 26.0271 49.3184 26.0271Z" fill="white"/>
<path d="M51.2498 16.0004L41.3208 16C39.8043 16 38.5706 17.2342 38.5706 18.7511V21.8857H34.4765L34.4738 21.8856H19.5658L19.5605 21.8857H16.918C15.309 21.8857 14 23.1947 14 24.8037V42.3361C14 43.9451 15.309 45.2541 16.918 45.2541H27.3725L26.4507 48.9985C26.4499 49.0017 26.4496 49.005 26.4489 49.0082C26.4452 49.0246 26.4422 49.0413 26.4396 49.0581C26.4384 49.0663 26.4369 49.0743 26.4359 49.0825C26.434 49.0987 26.4331 49.1152 26.4324 49.1319C26.432 49.1403 26.4313 49.1488 26.4312 49.1572L26.431 49.162C26.431 49.1824 26.4322 49.2025 26.4339 49.2224C26.4342 49.225 26.434 49.2276 26.4343 49.2302C26.4367 49.2552 26.4408 49.2799 26.4459 49.3041C26.4465 49.3072 26.4475 49.3102 26.4482 49.3134C26.453 49.3342 26.4585 49.3548 26.4651 49.3749C26.467 49.3806 26.4693 49.3863 26.4713 49.392C26.4775 49.4092 26.4842 49.4261 26.4917 49.4427C26.4948 49.4495 26.4981 49.4563 26.5015 49.463C26.509 49.4781 26.5169 49.4929 26.5253 49.5074C26.5295 49.5145 26.5337 49.5215 26.5381 49.5285C26.5471 49.5424 26.5567 49.556 26.5666 49.5692C26.5699 49.5738 26.5728 49.5787 26.5763 49.5832C26.5779 49.5851 26.5797 49.5869 26.5813 49.5888C26.5933 49.6038 26.606 49.618 26.6192 49.6319C26.6228 49.6357 26.626 49.6396 26.6296 49.6433C26.6466 49.6603 26.6643 49.6764 26.683 49.6914C26.6879 49.6954 26.6931 49.6989 26.6981 49.7028C26.7123 49.7138 26.7267 49.7243 26.7417 49.7342C26.7482 49.7384 26.7549 49.7422 26.7616 49.7462C26.7759 49.7549 26.7904 49.7632 26.8055 49.7707C26.8124 49.7742 26.8194 49.7774 26.8264 49.7807C26.8418 49.7879 26.8574 49.7944 26.8734 49.8004C26.8804 49.8031 26.8874 49.8057 26.8944 49.8082C26.911 49.8138 26.9278 49.8185 26.9449 49.8229C26.9518 49.8247 26.9585 49.8267 26.9654 49.8282C26.9835 49.8322 27.0017 49.8353 27.0203 49.8377C27.0265 49.8385 27.0326 49.8398 27.0389 49.8405C27.0635 49.8432 27.0885 49.8448 27.1137 49.8448H40.749C41.1261 49.8448 41.4318 49.5391 41.4318 49.162C41.4318 48.7849 41.1261 48.4792 40.749 48.4792H36.216L37.0099 45.2544L48.9513 45.254C50.3909 45.254 51.5622 44.0832 51.5622 42.644V36.7377C52.9322 36.5819 54.0001 35.4163 54.0001 34.0055V18.7509C54.0003 17.2342 52.7664 16.0004 51.2498 16.0004ZM42.1207 18.7509C42.1207 17.9873 42.7419 17.366 43.5056 17.366H51.2498C52.0135 17.3659 52.6348 17.9872 52.6348 18.7509V19.5558H42.1207V18.7509ZM42.1206 20.9212H52.6347V31.7489H52.3082L48.8723 27.9679C48.7428 27.8256 48.5593 27.7443 48.367 27.7443C48.1746 27.7443 47.9911 27.8255 47.8617 27.9679L46.8862 29.0412L44.4638 26.3766C44.3345 26.2343 44.1509 26.153 43.9586 26.153C43.7663 26.153 43.5828 26.2342 43.4534 26.3766L42.1207 27.8429L42.1206 20.9212ZM50.463 31.7489H49.3477L47.809 30.0564L48.367 29.4424L50.463 31.7489ZM42.1208 29.8186L42.1479 29.8432L43.9587 27.851L47.5024 31.7489H42.1208V29.8186ZM39.9361 18.7512C39.9361 18.055 40.4525 17.4787 41.1217 17.3817C40.889 17.7852 40.7551 18.2525 40.7551 18.751V34.0053C40.7551 34.5033 40.8888 34.9705 41.1213 35.3739C40.4522 35.2766 39.9361 34.7008 39.9361 34.0053V18.7512ZM18.3204 37.2531L23.8131 31.6078L31.1153 39.6394H18.3204V37.2531ZM29.8222 36.1863L31.4628 34.381L36.2412 39.6392H32.9606L29.8222 36.1863ZM17.2715 43.8885H16.918C16.062 43.8886 15.3656 43.1922 15.3656 42.3361V24.8037C15.3656 23.9476 16.062 23.2512 16.918 23.2512H17.2715C17.0697 23.6215 16.9549 24.0459 16.9549 24.4964V42.6436C16.9549 43.0941 17.0696 43.5183 17.2715 43.8885ZM34.8098 48.479H27.985L28.7788 45.2541H35.6037L34.8098 48.479ZM50.1969 42.6438C50.1969 43.33 49.6382 43.8883 48.9515 43.8883H19.5658C18.8791 43.8883 18.3204 43.3301 18.3204 42.6438V41.005H50.1969V42.6438ZM50.1969 39.6394H38.0864L31.9682 32.9067C31.8387 32.7643 31.6553 32.6831 31.4629 32.6831C31.2705 32.6831 31.087 32.7643 30.9576 32.9067L28.8995 35.1713L24.3352 30.1521C24.2084 30.0128 24.0298 29.932 23.8416 29.9289C23.6514 29.9282 23.4719 30.0004 23.3407 30.1354L18.3205 35.2951V24.4965C18.3205 23.8107 18.8778 23.2527 19.5632 23.2513H38.5707V34.0053C38.5707 35.5217 39.8044 36.7555 41.3209 36.7555L50.197 36.7557L50.1969 39.6394ZM52.6348 34.0052C52.6348 34.7689 52.0135 35.3902 51.2498 35.3902L43.5003 35.3899C42.7391 35.387 42.1206 34.7671 42.1206 34.0052V33.1144H52.6347L52.6348 34.0052Z" fill="white"/>
</g>
</g>
<defs>
<filter id="filter0_dd_2_107" x="0" y="0" width="66" height="66" filterUnits="userSpaceOnUse" color-interpolation-filters="sRGB">
<feFlood flood-opacity="0" result="BackgroundImageFix"/>
<feColorMatrix in="SourceAlpha" type="matrix" values="0 0 0 0 0 0 0 0 0 0 0 0 0 0 0 0 0 0 127 0" result="hardAlpha"/>
<feOffset dy="1"/>
<feGaussianBlur stdDeviation="1"/>
<feColorMatrix type="matrix" values="0 0 0 0 0 0 0 0 0 0 0 0 0 0 0 0 0 0 0.06 0"/>
<feBlend mode="normal" in2="BackgroundImageFix" result="effect1_dropShadow_2_107"/>
<feColorMatrix in="SourceAlpha" type="matrix" values="0 0 0 0 0 0 0 0 0 0 0 0 0 0 0 0 0 0 127 0" result="hardAlpha"/>
<feOffset dy="1"/>
<feGaussianBlur stdDeviation="1.5"/>
<feColorMatrix type="matrix" values="0 0 0 0 0 0 0 0 0 0 0 0 0 0 0 0 0 0 0.1 0"/>
<feBlend mode="normal" in2="effect1_dropShadow_2_107" result="effect2_dropShadow_2_107"/>
<feBlend mode="normal" in="SourceGraphic" in2="effect2_dropShadow_2_107" result="shape"/>
</filter>
<clipPath id="clip0_2_107">
<rect width="66" height="66" fill="white"/>
</clipPath>
</defs>
</svg>
