<svg width="66" height="66" viewBox="0 0 66 66" fill="none" xmlns="http://www.w3.org/2000/svg">
<g clip-path="url(#clip0_2_82)">
<mask id="mask0_2_82" style="mask-type:luminance" maskUnits="userSpaceOnUse" x="0" y="0" width="66" height="66">
<path d="M66 0H0V66H66V0Z" fill="white"/>
</mask>
<g mask="url(#mask0_2_82)">
<g filter="url(#filter0_dd_2_82)">
<path d="M43 2H23C11.9543 2 3 10.9543 3 22V42C3 53.0457 11.9543 62 23 62H43C54.0457 62 63 53.0457 63 42V22C63 10.9543 54.0457 2 43 2Z" fill="white" fill-opacity="0.1"/>
</g>
<path d="M45 28C50.5228 28 55 23.5228 55 18C55 12.4772 50.5228 8 45 8C39.4772 8 35 12.4772 35 18C35 23.5228 39.4772 28 45 28Z" fill="#F73722"/>
<path d="M46.3198 34.9011H44.7185V23.4761C44.7185 23.1069 44.4192 22.8075 44.0499 22.8075H41.5137V18.4738C41.5137 18.1046 41.2145 17.8053 40.8451 17.8053H37.2119V15.6686C37.2119 15.2994 36.9127 15 36.5434 15H29.3376C28.9684 15 28.6691 15.2993 28.6691 15.6686V17.8053H22.6396C21.1841 17.8053 20 18.9894 20 20.4449V47.7917C20 48.4963 20.2748 49.1591 20.7735 49.6578C21.2723 50.1566 21.935 50.4313 22.6396 50.4313H23.4891V54.3315C23.4891 54.7007 23.7884 55.0001 24.1576 55.0001H30.6976C31.0668 55.0001 31.3661 54.7008 31.3661 54.3315V52.9074H32.8235C33.1927 52.9074 33.4921 52.6081 33.4921 52.2389V50.4313H40.845C41.2143 50.4313 41.5135 50.132 41.5135 49.7627V45.821L41.514 45.4929H46.32C46.6893 45.4929 46.9885 45.1936 46.9885 44.8243V35.5697C46.9884 35.2004 46.689 34.9011 46.3198 34.9011ZM30.0062 16.3371H35.8749V17.8052H30.0062V16.3371ZM30.0289 53.6628H24.8261V48.46H25.6148V52.2388C25.6148 52.608 25.9141 52.9073 26.2834 52.9073H30.029L30.0289 53.6628ZM32.1547 51.5702H26.9519V48.4603H32.1547V51.5702ZM40.1762 49.0941H33.4919V48.4602H36.2761C36.6454 48.4602 36.9447 48.1608 36.9447 47.7916C36.9447 47.4224 36.6454 47.123 36.2761 47.123L24.1576 47.1228C23.7884 47.1228 23.489 47.4221 23.489 47.7913V49.094H22.6395C22.2921 49.094 21.9652 48.9584 21.719 48.7122C21.4728 48.466 21.3372 48.139 21.3372 47.7917C21.3372 47.0735 21.9214 46.4893 22.6395 46.4893H40.1762V49.0941ZM40.1765 45.1523H22.6395C22.1661 45.1523 21.7217 45.2782 21.3372 45.4974V20.4449C21.3371 19.9713 21.592 19.5572 21.9711 19.3291V26.4227C21.9711 26.7919 22.2705 27.0913 22.6397 27.0913C23.0089 27.0913 23.3083 26.7919 23.3083 26.4227V19.1424H40.1767L40.1765 45.1523ZM41.5138 24.1446H43.3814V42.066H41.5138V24.1446ZM45.6512 44.1556H41.5137V43.4031H44.0499C44.4192 43.4031 44.7185 43.1039 44.7185 42.7346V36.2382H45.6512V44.1556Z" fill="white"/>
<path d="M22.6396 29.6316C22.2704 29.6316 21.971 29.9309 21.971 30.3002V40.7292C21.971 41.0985 22.2704 41.3978 22.6396 41.3978C23.0088 41.3978 23.3082 41.0985 23.3082 40.7292V30.3001C23.3082 29.9309 23.0088 29.6316 22.6396 29.6316Z" fill="white"/>
</g>
</g>
<defs>
<filter id="filter0_dd_2_82" x="0" y="0" width="66" height="66" filterUnits="userSpaceOnUse" color-interpolation-filters="sRGB">
<feFlood flood-opacity="0" result="BackgroundImageFix"/>
<feColorMatrix in="SourceAlpha" type="matrix" values="0 0 0 0 0 0 0 0 0 0 0 0 0 0 0 0 0 0 127 0" result="hardAlpha"/>
<feOffset dy="1"/>
<feGaussianBlur stdDeviation="1"/>
<feColorMatrix type="matrix" values="0 0 0 0 0 0 0 0 0 0 0 0 0 0 0 0 0 0 0.06 0"/>
<feBlend mode="normal" in2="BackgroundImageFix" result="effect1_dropShadow_2_82"/>
<feColorMatrix in="SourceAlpha" type="matrix" values="0 0 0 0 0 0 0 0 0 0 0 0 0 0 0 0 0 0 127 0" result="hardAlpha"/>
<feOffset dy="1"/>
<feGaussianBlur stdDeviation="1.5"/>
<feColorMatrix type="matrix" values="0 0 0 0 0 0 0 0 0 0 0 0 0 0 0 0 0 0 0.1 0"/>
<feBlend mode="normal" in2="effect1_dropShadow_2_82" result="effect2_dropShadow_2_82"/>
<feBlend mode="normal" in="SourceGraphic" in2="effect2_dropShadow_2_82" result="shape"/>
</filter>
<clipPath id="clip0_2_82">
<rect width="66" height="66" fill="white"/>
</clipPath>
</defs>
</svg>
