<svg width="16" height="16" viewBox="0 0 16 16" fill="none" xmlns="http://www.w3.org/2000/svg">
<g clip-path="url(#clip0_11_2)">
<path d="M6.375 7.12502V4.65802H8.155C9.128 4.65802 9.697 5.11502 9.697 5.89502C9.697 6.69702 9.093 7.12502 7.933 7.12502H6.375ZM6.375 10.887H8.273C9.457 10.887 10.083 10.407 10.083 9.51002C10.083 8.62502 9.433 8.16202 8.197 8.16202H6.375V10.887Z" fill="#7736F9"/>
<path d="M4.00201 0C2.94115 0 1.92373 0.421427 1.17359 1.17157C0.423442 1.92172 0.00201416 2.93913 0.00201416 4V12C0.00201416 13.0609 0.423442 14.0783 1.17359 14.8284C1.92373 15.5786 2.94115 16 4.00201 16H12.002C13.0629 16 14.0803 15.5786 14.8304 14.8284C15.5806 14.0783 16.002 13.0609 16.002 12V4C16.002 2.93913 15.5806 1.92172 14.8304 1.17157C14.0803 0.421427 13.0629 0 12.002 0L4.00201 0ZM5.06201 12V3.545H8.46101C10.048 3.545 11.004 4.354 11.004 5.655C11.004 6.539 10.354 7.33 9.52101 7.471V7.571C10.664 7.688 11.425 8.502 11.425 9.604C11.425 11.092 10.341 12 8.53701 12H5.06201Z" fill="#712CF9" fill-opacity="0.95"/>
</g>
<defs>
<clipPath id="clip0_11_2">
<rect width="16" height="16" fill="white"/>
</clipPath>
</defs>
</svg>
