<svg width="92" height="92" viewBox="0 0 92 92" fill="none" xmlns="http://www.w3.org/2000/svg">
<g filter="url(#filter0_dd_1_2)">
<path d="M56 16H36C24.9543 16 16 24.9543 16 36V56C16 67.0457 24.9543 76 36 76H56C67.0457 76 76 67.0457 76 56V36C76 24.9543 67.0457 16 56 16Z" fill="white"/>
<path d="M57 42C62.5228 42 67 37.5228 67 32C67 26.4772 62.5228 22 57 22C51.4772 22 47 26.4772 47 32C47 37.5228 51.4772 42 57 42Z" fill="#FFCC1E"/>
<g filter="url(#filter1_f_1_2)">
<path d="M46 62C54.8366 62 62 54.8366 62 46C62 37.1634 54.8366 30 46 30C37.1634 30 30 37.1634 30 46C30 54.8366 37.1634 62 46 62Z" fill="#CCCCCC"/>
</g>
<path d="M48.2453 34.343C46.5196 33.4894 44.459 33.4894 42.7333 34.343C42.5054 34.4557 42.3612 34.688 42.3612 34.9422V47.6837C42.3612 47.8163 42.4005 47.9459 42.4744 48.056L44.934 51.7246C45.0582 51.9097 45.2665 52.0208 45.4893 52.0208C45.7121 52.0208 45.9204 51.9097 46.0445 51.7246L48.5041 48.056C48.5779 47.946 48.6174 47.8164 48.6174 47.6837V34.9422C48.6175 34.688 48.4733 34.4558 48.2453 34.343ZM43.6983 38.2073C44.0612 38.0647 44.4381 37.9672 44.8208 37.9148V46.5411C44.4426 46.5778 44.0672 46.6466 43.6983 46.7459V38.2073ZM45.4894 50.1517L45.1889 49.7035C45.2873 49.6857 45.3876 49.6755 45.4893 49.6755C45.5911 49.6755 45.6915 49.6857 45.79 49.7035L45.4894 50.1517ZM46.5708 48.5387C46.2284 48.4068 45.8629 48.3383 45.4893 48.3383C45.1158 48.3383 44.7504 48.4068 44.408 48.5387L44.0673 48.0305C44.9976 47.7838 45.9813 47.7838 46.9115 48.0305L46.5708 48.5387ZM47.2804 46.746C46.9116 46.6467 46.5361 46.5779 46.1579 46.5412V37.9148C46.5405 37.9672 46.9176 38.0647 47.2804 38.2073V46.746ZM47.2804 36.7931C46.1152 36.4452 44.8635 36.4452 43.6983 36.7931V35.3768C44.8442 34.9265 46.1347 34.9265 47.2804 35.3768V36.7931Z" fill="black"/>
<path d="M60.3198 45.9011H58.7185V34.4761C58.7185 34.1069 58.4192 33.8075 58.0499 33.8075H55.5137V29.4738C55.5137 29.1046 55.2145 28.8053 54.8451 28.8053H51.2119V26.6686C51.2119 26.2994 50.9127 26 50.5434 26H43.3376C42.9684 26 42.6691 26.2993 42.6691 26.6686V28.8053H36.6396C35.1841 28.8053 34 29.9894 34 31.4449V58.7917C34 59.4963 34.2748 60.1591 34.7735 60.6578C35.2723 61.1566 35.935 61.4313 36.6396 61.4313H37.4891V65.3315C37.4891 65.7007 37.7884 66.0001 38.1576 66.0001H44.6976C45.0668 66.0001 45.3661 65.7008 45.3661 65.3315V63.9074H46.8235C47.1927 63.9074 47.4921 63.6081 47.4921 63.2389V61.4313H54.845C55.2143 61.4313 55.5135 61.132 55.5135 60.7627V56.821L55.514 56.4929H60.32C60.6893 56.4929 60.9885 56.1936 60.9885 55.8243V46.5697C60.9884 46.2004 60.689 45.9011 60.3198 45.9011ZM44.0062 27.3371H49.8749V28.8052H44.0062V27.3371ZM44.0289 64.6628H38.8261V59.46H39.6148V63.2388C39.6148 63.608 39.9141 63.9073 40.2834 63.9073H44.029L44.0289 64.6628ZM46.1547 62.5702H40.9519V59.4603H46.1547V62.5702ZM54.1762 60.0941H47.4919V59.4602H50.2761C50.6454 59.4602 50.9447 59.1608 50.9447 58.7916C50.9447 58.4224 50.6454 58.123 50.2761 58.123L38.1576 58.1228C37.7884 58.1228 37.489 58.4221 37.489 58.7913V60.094H36.6395C36.2921 60.094 35.9652 59.9584 35.719 59.7122C35.4728 59.466 35.3372 59.139 35.3372 58.7917C35.3372 58.0735 35.9214 57.4893 36.6395 57.4893H54.1762V60.0941ZM54.1765 56.1523H36.6395C36.1661 56.1523 35.7217 56.2782 35.3372 56.4974V31.4449C35.3371 30.9713 35.592 30.5572 35.9711 30.3291V37.4227C35.9711 37.7919 36.2705 38.0913 36.6397 38.0913C37.0089 38.0913 37.3083 37.7919 37.3083 37.4227V30.1424H54.1767L54.1765 56.1523ZM55.5138 35.1446H57.3814V53.066H55.5138V35.1446ZM59.6512 55.1556H55.5137V54.4031H58.0499C58.4192 54.4031 58.7185 54.1039 58.7185 53.7346V47.2382H59.6512V55.1556Z" fill="black"/>
<path d="M36.6396 40.6316C36.2704 40.6316 35.971 40.9309 35.971 41.3002V51.7292C35.971 52.0985 36.2704 52.3978 36.6396 52.3978C37.0088 52.3978 37.3082 52.0985 37.3082 51.7292V41.3001C37.3082 40.9309 37.0088 40.6316 36.6396 40.6316Z" fill="black"/>
</g>
<defs>
<filter id="filter0_dd_1_2" x="13" y="14" width="66" height="66" filterUnits="userSpaceOnUse" color-interpolation-filters="sRGB">
<feFlood flood-opacity="0" result="BackgroundImageFix"/>
<feColorMatrix in="SourceAlpha" type="matrix" values="0 0 0 0 0 0 0 0 0 0 0 0 0 0 0 0 0 0 127 0" result="hardAlpha"/>
<feOffset dy="1"/>
<feGaussianBlur stdDeviation="1"/>
<feColorMatrix type="matrix" values="0 0 0 0 0 0 0 0 0 0 0 0 0 0 0 0 0 0 0.06 0"/>
<feBlend mode="normal" in2="BackgroundImageFix" result="effect1_dropShadow_1_2"/>
<feColorMatrix in="SourceAlpha" type="matrix" values="0 0 0 0 0 0 0 0 0 0 0 0 0 0 0 0 0 0 127 0" result="hardAlpha"/>
<feOffset dy="1"/>
<feGaussianBlur stdDeviation="1.5"/>
<feColorMatrix type="matrix" values="0 0 0 0 0 0 0 0 0 0 0 0 0 0 0 0 0 0 0.1 0"/>
<feBlend mode="normal" in2="effect1_dropShadow_1_2" result="effect2_dropShadow_1_2"/>
<feBlend mode="normal" in="SourceGraphic" in2="effect2_dropShadow_1_2" result="shape"/>
</filter>
<filter id="filter1_f_1_2" x="0" y="0" width="92" height="92" filterUnits="userSpaceOnUse" color-interpolation-filters="sRGB">
<feFlood flood-opacity="0" result="BackgroundImageFix"/>
<feBlend mode="normal" in="SourceGraphic" in2="BackgroundImageFix" result="shape"/>
<feGaussianBlur stdDeviation="15" result="effect1_foregroundBlur_1_2"/>
</filter>
</defs>
</svg>
