<svg width="233" height="324" viewBox="0 0 233 324" fill="none" xmlns="http://www.w3.org/2000/svg">
<g clip-path="url(#clip0_2_119)">
<mask id="mask0_2_119" style="mask-type:luminance" maskUnits="userSpaceOnUse" x="0" y="0" width="233" height="324">
<path d="M233 0H0V324H233V0Z" fill="white"/>
</mask>
<g mask="url(#mask0_2_119)">
<path d="M232.404 237.62C232.544 249.84 230.254 262.141 225.433 273.03C220.763 283.61 212.683 294.45 203.694 301.8C188.794 313.99 170.624 322.79 151.263 323.96L151.273 322.891C158.114 320.12 166.074 313.231 169.294 308.55C174.094 301.561 174.904 292.92 172.614 284.87C167.763 267.87 151.635 257.37 138.754 246.71C121.124 232.141 104.164 216.771 86.904 201.78C70.614 187.65 54.324 173.52 38.014 159.4C15.924 140.28 0.364014 117.89 0.364014 87.48C0.364014 53 22.874 17.79 56.124 6.53999C64.424 3.72999 73.904 0.759996 82.814 0.979996C82.904 0.979996 82.994 0.989975 83.094 0.989975H83.184C83.284 0.999975 83.384 0.999985 83.484 0.999985C83.704 1.00998 83.934 1.02999 84.154 1.03999C84.394 1.04999 84.634 1.06998 84.884 1.08998C84.464 1.06098 84.014 1.07999 83.544 1.15099C83.504 1.16099 83.474 1.16097 83.434 1.17097C83.394 1.18197 83.354 1.18197 83.314 1.19197C83.274 1.20197 83.224 1.21199 83.184 1.21199C78.494 2.15199 71.744 7.55199 69.104 10.233C64.564 14.842 61.694 21.012 60.644 27.373C58.284 41.783 67.054 54.224 77.654 63.133C88.174 71.974 97.994 81.524 108.444 90.404C119.264 99.593 129.923 108.874 140.465 118.383C146.624 123.944 153.004 129.283 159.244 134.753L159.603 135.064L193.364 164.724L196.294 167.303C210.434 179.734 221.834 192.524 227.965 210.854C230.805 219.311 232.284 228.44 232.404 237.62Z" fill="#F73722"/>
<path d="M55.2 319.334C82.4348 319.334 104.513 297.256 104.513 270.021C104.513 242.786 82.4348 220.708 55.2 220.708C27.9652 220.708 5.88702 242.786 5.88702 270.021C5.88702 297.256 27.9652 319.334 55.2 319.334Z" fill="#F73722"/>
<path d="M116.387 0.968994L211.887 83.334V0.968994H116.387Z" fill="#F73722"/>
</g>
</g>
<defs>
<clipPath id="clip0_2_119">
<rect width="233" height="324" fill="white"/>
</clipPath>
</defs>
</svg>
