<svg width="214" height="90" viewBox="0 0 214 90" fill="none" xmlns="http://www.w3.org/2000/svg">
<path d="M21.915 55.8C23.745 56.19 25.215 57.105 26.325 58.545C27.435 59.955 27.99 61.575 27.99 63.405C27.99 66.045 27.06 68.145 25.2 69.705C23.37 71.235 20.805 72 17.505 72H2.79V40.41H17.01C20.22 40.41 22.725 41.145 24.525 42.615C26.355 44.085 27.27 46.08 27.27 48.6C27.27 50.46 26.775 52.005 25.785 53.235C24.825 54.465 23.535 55.32 21.915 55.8ZM10.485 53.19H15.525C16.785 53.19 17.745 52.92 18.405 52.38C19.095 51.81 19.44 50.985 19.44 49.905C19.44 48.825 19.095 48 18.405 47.43C17.745 46.86 16.785 46.575 15.525 46.575H10.485V53.19ZM16.155 65.79C17.445 65.79 18.435 65.505 19.125 64.935C19.845 64.335 20.205 63.48 20.205 62.37C20.205 61.26 19.83 60.39 19.08 59.76C18.36 59.13 17.355 58.815 16.065 58.815H10.485V65.79H16.155ZM41.4981 46.575V52.965H51.8031V58.905H41.4981V65.835H53.1531V72H33.8031V40.41H53.1531V46.575H41.4981ZM87.7588 72H80.0638L67.1938 52.515V72H59.4988V40.41H67.1938L80.0638 59.985V40.41H87.7588V72ZM102.382 46.575V52.965H112.687V58.905H102.382V65.835H114.037V72H94.6867V40.41H114.037V46.575H102.382ZM140.947 40.41V46.575H128.077V53.235H137.707V59.22H128.077V72H120.382V40.41H140.947ZM154.037 40.41V72H146.342V40.41H154.037ZM183.688 40.41V46.575H175.318V72H167.623V46.575H159.253V40.41H183.688ZM200.33 72.315C198.02 72.315 195.95 71.94 194.12 71.19C192.29 70.44 190.82 69.33 189.71 67.86C188.63 66.39 188.06 64.62 188 62.55H196.19C196.31 63.72 196.715 64.62 197.405 65.25C198.095 65.85 198.995 66.15 200.105 66.15C201.245 66.15 202.145 65.895 202.805 65.385C203.465 64.845 203.795 64.11 203.795 63.18C203.795 62.4 203.525 61.755 202.985 61.245C202.475 60.735 201.83 60.315 201.05 59.985C200.3 59.655 199.22 59.28 197.81 58.86C195.77 58.23 194.105 57.6 192.815 56.97C191.525 56.34 190.415 55.41 189.485 54.18C188.555 52.95 188.09 51.345 188.09 49.365C188.09 46.425 189.155 44.13 191.285 42.48C193.415 40.8 196.19 39.96 199.61 39.96C203.09 39.96 205.895 40.8 208.025 42.48C210.155 44.13 211.295 46.44 211.445 49.41H203.12C203.06 48.39 202.685 47.595 201.995 47.025C201.305 46.425 200.42 46.125 199.34 46.125C198.41 46.125 197.66 46.38 197.09 46.89C196.52 47.37 196.235 48.075 196.235 49.005C196.235 50.025 196.715 50.82 197.675 51.39C198.635 51.96 200.135 52.575 202.175 53.235C204.215 53.925 205.865 54.585 207.125 55.215C208.415 55.845 209.525 56.76 210.455 57.96C211.385 59.16 211.85 60.705 211.85 62.595C211.85 64.395 211.385 66.03 210.455 67.5C209.555 68.97 208.235 70.14 206.495 71.01C204.755 71.88 202.7 72.315 200.33 72.315Z" fill="#333333"/>
<rect width="206" height="36" transform="translate(2)" fill="#D6D6D8"/>
<path d="M23.112 26L17.016 18.536V26H13.656V9.248H17.016V16.76L23.112 9.248H27.168L20.256 17.552L27.36 26H23.112ZM32.2101 11.96V16.16H37.8501V18.824H32.2101V23.264H38.5701V26H28.8501V9.224H38.5701V11.96H32.2101ZM54.2235 9.248L48.5595 20.168V26H45.1995V20.168L39.5115 9.248H43.3035L46.9035 16.904L50.4795 9.248H54.2235ZM70.7841 9.248V11.96H63.8001V16.256H69.1521V18.92H63.8001V26H60.4401V9.248H70.7841ZM75.8066 11.96V16.16H81.4466V18.824H75.8066V23.264H82.1666V26H72.4466V9.224H82.1666V11.96H75.8066ZM94.7721 22.808H88.1001L86.9961 26H83.4681L89.4921 9.224H93.4041L99.4281 26H95.8761L94.7721 22.808ZM93.8601 20.12L91.4361 13.112L89.0121 20.12H93.8601ZM112.36 9.248V11.96H107.896V26H104.536V11.96H100.072V9.248H112.36ZM117.403 9.248V19.616C117.403 20.752 117.699 21.624 118.291 22.232C118.883 22.824 119.715 23.12 120.787 23.12C121.875 23.12 122.715 22.824 123.307 22.232C123.899 21.624 124.195 20.752 124.195 19.616V9.248H127.579V19.592C127.579 21.016 127.267 22.224 126.643 23.216C126.035 24.192 125.211 24.928 124.171 25.424C123.147 25.92 122.003 26.168 120.739 26.168C119.491 26.168 118.355 25.92 117.331 25.424C116.323 24.928 115.523 24.192 114.931 23.216C114.339 22.224 114.043 21.016 114.043 19.592V9.248H117.403ZM138.746 26L135.05 19.472H133.466V26H130.106V9.248H136.394C137.69 9.248 138.794 9.48 139.706 9.944C140.618 10.392 141.298 11.008 141.746 11.792C142.21 12.56 142.442 13.424 142.442 14.384C142.442 15.488 142.122 16.488 141.482 17.384C140.842 18.264 139.89 18.872 138.626 19.208L142.634 26H138.746ZM133.466 16.952H136.274C137.186 16.952 137.866 16.736 138.314 16.304C138.762 15.856 138.986 15.24 138.986 14.456C138.986 13.688 138.762 13.096 138.314 12.68C137.866 12.248 137.186 12.032 136.274 12.032H133.466V16.952ZM148.121 11.96V16.16H153.761V18.824H148.121V23.264H154.481V26H144.761V9.224H154.481V11.96H148.121ZM162.598 26.168C161.43 26.168 160.374 25.968 159.43 25.568C158.502 25.168 157.766 24.592 157.222 23.84C156.678 23.088 156.398 22.2 156.382 21.176H159.982C160.03 21.864 160.27 22.408 160.702 22.808C161.15 23.208 161.758 23.408 162.526 23.408C163.31 23.408 163.926 23.224 164.374 22.856C164.822 22.472 165.046 21.976 165.046 21.368C165.046 20.872 164.894 20.464 164.59 20.144C164.286 19.824 163.902 19.576 163.438 19.4C162.99 19.208 162.366 19 161.566 18.776C160.478 18.456 159.59 18.144 158.902 17.84C158.23 17.52 157.646 17.048 157.15 16.424C156.67 15.784 156.43 14.936 156.43 13.88C156.43 12.888 156.678 12.024 157.174 11.288C157.67 10.552 158.366 9.992 159.262 9.608C160.158 9.208 161.182 9.008 162.334 9.008C164.062 9.008 165.462 9.432 166.534 10.28C167.622 11.112 168.222 12.28 168.334 13.784H164.638C164.606 13.208 164.358 12.736 163.894 12.368C163.446 11.984 162.846 11.792 162.094 11.792C161.438 11.792 160.91 11.96 160.51 12.296C160.126 12.632 159.934 13.12 159.934 13.76C159.934 14.208 160.078 14.584 160.366 14.888C160.67 15.176 161.038 15.416 161.47 15.608C161.918 15.784 162.542 15.992 163.342 16.232C164.43 16.552 165.318 16.872 166.006 17.192C166.694 17.512 167.286 17.992 167.782 18.632C168.278 19.272 168.526 20.112 168.526 21.152C168.526 22.048 168.294 22.88 167.83 23.648C167.366 24.416 166.686 25.032 165.79 25.496C164.894 25.944 163.83 26.168 162.598 26.168ZM193.605 26L191.781 24.2C190.229 25.592 188.333 26.288 186.093 26.288C184.861 26.288 183.773 26.08 182.829 25.664C181.901 25.232 181.181 24.632 180.669 23.864C180.157 23.08 179.901 22.176 179.901 21.152C179.901 20.048 180.213 19.056 180.837 18.176C181.461 17.296 182.381 16.584 183.597 16.04C183.165 15.512 182.853 15.008 182.661 14.528C182.469 14.032 182.373 13.504 182.373 12.944C182.373 12.176 182.573 11.488 182.973 10.88C183.373 10.256 183.941 9.768 184.677 9.416C185.429 9.064 186.301 8.888 187.293 8.888C188.301 8.888 189.165 9.08 189.885 9.464C190.605 9.848 191.141 10.36 191.493 11C191.845 11.64 191.997 12.352 191.949 13.136H188.685C188.701 12.608 188.573 12.208 188.301 11.936C188.029 11.648 187.661 11.504 187.197 11.504C186.749 11.504 186.373 11.64 186.069 11.912C185.781 12.168 185.637 12.504 185.637 12.92C185.637 13.32 185.757 13.72 185.997 14.12C186.237 14.504 186.629 14.984 187.173 15.56L191.397 19.736C191.429 19.704 191.453 19.672 191.469 19.64C191.485 19.608 191.501 19.576 191.517 19.544L192.885 17.264H196.389L194.709 20.216C194.389 20.84 194.045 21.432 193.677 21.992L197.733 26H193.605ZM186.189 23.504C187.501 23.504 188.661 23.04 189.669 22.112L185.541 18.032C183.989 18.72 183.213 19.696 183.213 20.96C183.213 21.68 183.485 22.288 184.029 22.784C184.573 23.264 185.293 23.504 186.189 23.504Z" fill="black"/>
</svg>
