<svg width="40" height="30" viewBox="0 0 40 30" fill="none" xmlns="http://www.w3.org/2000/svg">
<path d="M12.562 13.2926L12.4963 13.2897C10.9341 13.2202 9.68796 11.9302 9.68796 10.3501C9.68796 8.76985 10.9343 7.47987 12.4966 7.4105L13.667 7.35852L13.9001 6.21042C14.4441 3.5309 16.8155 1.51465 19.6545 1.51465C22.4977 1.51465 24.8719 3.53685 25.4113 6.22222L25.6771 7.54535L27.0208 7.42037C27.1119 7.4119 27.2045 7.40753 27.2986 7.40753C28.9237 7.40753 30.2411 8.72496 30.2411 10.3501C30.2411 11.9752 28.9237 13.2927 27.2986 13.2927L27.2765 13.2926H24.15C24.135 13.2917 24.1199 13.2913 24.1047 13.2913H23.3355C22.9213 13.2913 22.5855 13.627 22.5855 14.0413C22.5855 14.4555 22.9213 14.7913 23.3355 14.7913H23.7821V14.7926H27.2765L27.2986 14.7927C29.7521 14.7927 31.7411 12.8037 31.7411 10.3501C31.7411 7.89653 29.7521 5.90753 27.2986 5.90753C27.1581 5.90753 27.0191 5.91406 26.8819 5.92681C26.2045 2.55463 23.2261 0.0146484 19.6545 0.0146484C16.0881 0.0146484 13.1132 2.54718 12.4301 5.91197C10.0695 6.01679 8.18796 7.96371 8.18796 10.3501C8.18796 12.7363 10.0693 14.6832 12.4297 14.7882V14.7926H12.6085L12.6305 14.7927L12.6525 14.7926H16.2403V14.7913H16.3047C16.7189 14.7913 17.0547 14.4555 17.0547 14.0413C17.0547 13.627 16.7189 13.2913 16.3047 13.2913H15.5355C15.5203 13.2913 15.5052 13.2917 15.4902 13.2926H12.6525L12.6305 13.2927L12.6085 13.2926H12.562Z" fill="#ED0100"/>
<path d="M5.68937 21.6089C6.00593 19.7239 7.53885 18.3533 9.315 18.3533C11.0912 18.3533 12.6242 19.724 12.9407 21.6092L13.0588 22.3126L13.7673 22.2299C13.871 22.2178 13.9765 22.2116 14.0836 22.2116C14.7204 22.2116 15.3208 22.4378 15.8088 22.8262H15.811C15.9422 22.9386 16.1126 23.0066 16.299 23.0066C16.7132 23.0066 17.049 22.6708 17.049 22.2566C17.049 22.018 16.9375 21.8054 16.7639 21.668L16.764 21.667C16.0728 21.1071 15.2159 20.7571 14.2725 20.7157C13.6283 18.5039 11.677 16.8533 9.315 16.8533C6.95297 16.8533 5.00165 18.5039 4.3575 20.7158C1.97472 20.822 0.144287 22.8972 0.144287 25.3486C0.144287 27.8654 2.0736 29.9856 4.54919 29.9856C4.65941 29.9856 4.76882 29.9813 4.87727 29.9729H13.7555C13.864 29.9813 13.9734 29.9856 14.0836 29.9856C15.7614 29.9856 17.1883 29.0117 17.9337 27.6006L17.9305 27.6026C17.9855 27.4983 18.0166 27.3795 18.0166 27.2534C18.0166 26.8392 17.6808 26.5034 17.2666 26.5034C16.9524 26.5034 16.6834 26.6966 16.5717 26.9707C16.0557 27.8893 15.1175 28.4856 14.0836 28.4856C14.0048 28.4856 13.927 28.4822 13.8501 28.4756L13.8181 28.4729H4.81469L4.78273 28.4756C4.70585 28.4822 4.62797 28.4856 4.54919 28.4856C2.98769 28.4856 1.64429 27.1253 1.64429 25.3486C1.64429 23.5719 2.98769 22.2116 4.54919 22.2116C4.65561 22.2116 4.76042 22.2177 4.86337 22.2297L5.57133 22.3117L5.68937 21.6089Z" fill="#ED0100"/>
<path d="M30.6141 18.3533C32.3902 18.3533 33.9232 19.7239 34.2397 21.6089L34.3577 22.3117L35.0657 22.2297C35.1687 22.2177 35.2735 22.2116 35.3799 22.2116C36.9414 22.2116 38.2848 23.5719 38.2848 25.3486C38.2848 27.1253 36.9414 28.4856 35.3799 28.4856C35.3011 28.4856 35.2232 28.4822 35.1463 28.4756L35.1144 28.4729H26.111L26.079 28.4756C26.0021 28.4822 25.9242 28.4856 25.8455 28.4856C24.8116 28.4856 23.8734 27.8893 23.3573 26.9707C23.2457 26.6966 22.9767 26.5034 22.6625 26.5034C22.2483 26.5034 21.9125 26.8392 21.9125 27.2534C21.9125 27.3795 21.9436 27.4983 21.9986 27.6026L21.9954 27.6006C22.7408 29.0117 24.1677 29.9856 25.8455 29.9856C25.9557 29.9856 26.0651 29.9813 26.1735 29.9729H35.0518C35.1603 29.9813 35.2697 29.9856 35.3799 29.9856C37.8555 29.9856 39.7848 27.8654 39.7848 25.3486C39.7848 22.8972 37.9544 20.822 35.5716 20.7158C34.9274 18.5039 32.9761 16.8533 30.6141 16.8533C28.2521 16.8533 26.3008 18.5039 25.6566 20.7157C24.7132 20.7571 23.8563 21.1071 23.1651 21.667L23.1652 21.668C22.9915 21.8054 22.8801 22.018 22.8801 22.2566C22.8801 22.6708 23.2159 23.0066 23.6301 23.0066C23.8165 23.0066 23.9869 22.9386 24.1181 22.8262H24.1203C24.6082 22.4378 25.2087 22.2116 25.8455 22.2116C25.9526 22.2116 26.0581 22.2178 26.1618 22.2299L26.8703 22.3126L26.9884 21.6092C27.3048 19.724 28.8378 18.3533 30.6141 18.3533Z" fill="#ED0100"/>
<path fill-rule="evenodd" clip-rule="evenodd" d="M16.9885 9.33557C16.9885 7.85434 18.1893 6.65356 19.6705 6.65356C21.1518 6.65356 22.3525 7.85434 22.3525 9.33557C22.3525 10.5019 21.608 11.4944 20.5683 11.8636L20.5682 24.2342H28.5854C28.8752 23.3267 29.7254 22.6694 30.7291 22.6694C31.9718 22.6694 32.9791 23.6768 32.9791 24.9194C32.9791 26.1621 31.9718 27.1694 30.7291 27.1694C29.7738 27.1694 28.9576 26.5741 28.6312 25.7342H11.413C11.0866 26.5741 10.2703 27.1694 9.31506 27.1694C8.07242 27.1694 7.06506 26.1621 7.06506 24.9194C7.06506 23.6768 8.07242 22.6694 9.31506 22.6694C10.3188 22.6694 11.169 23.3267 11.4588 24.2342H19.0682L19.0683 11.9497C17.877 11.6764 16.9885 10.6097 16.9885 9.33557ZM19.6705 8.15356C19.0177 8.15356 18.4885 8.68277 18.4885 9.33557C18.4885 9.98837 19.0177 10.5176 19.6705 10.5176C20.3233 10.5176 20.8525 9.98837 20.8525 9.33557C20.8525 8.68277 20.3233 8.15356 19.6705 8.15356ZM8.56506 24.9194C8.56506 24.5052 8.90085 24.1694 9.31506 24.1694C9.72928 24.1694 10.0651 24.5052 10.0651 24.9194C10.0651 25.3336 9.72928 25.6694 9.31506 25.6694C8.90085 25.6694 8.56506 25.3336 8.56506 24.9194ZM30.7291 24.1694C30.3149 24.1694 29.9791 24.5052 29.9791 24.9194C29.9791 25.3336 30.3149 25.6694 30.7291 25.6694C31.1433 25.6694 31.4791 25.3336 31.4791 24.9194C31.4791 24.5052 31.1433 24.1694 30.7291 24.1694Z" fill="#ED0100"/>
</svg>
