<svg width="36" height="34" viewBox="0 0 36 34" fill="none" xmlns="http://www.w3.org/2000/svg">
<path fill-rule="evenodd" clip-rule="evenodd" d="M7.99333 6.98066C6.02476 7.38 4.54302 9.12032 4.54302 11.2067C4.54302 13.5883 6.47367 15.5189 8.85523 15.5189L8.88242 15.5189H17.1609V17.7688C16.0963 18.0409 15.2582 18.8791 14.9861 19.9437H4.32733C3.91312 19.9437 3.57733 20.2795 3.57733 20.6937V25.5493H2.53228C1.56578 25.5493 0.782279 26.3328 0.782279 27.2993V31.824C0.782279 32.7904 1.56578 33.574 2.53228 33.574H6.33197C7.29847 33.574 8.08197 32.7905 8.08197 31.824V27.2993C8.08197 26.3328 7.29847 25.5493 6.33197 25.5493H5.07733V21.4437H14.9862C15.2585 22.5081 16.0965 23.346 17.1609 23.6181V25.5493H16.011C15.0445 25.5493 14.261 26.3328 14.261 27.2993V31.824C14.261 32.7904 15.0445 33.574 16.011 33.574H19.8107C20.7772 33.574 21.5607 32.7905 21.5607 31.824V27.2993C21.5607 26.3328 20.7772 25.5493 19.8107 25.5493H18.6609V23.618C19.7252 23.3459 20.5631 22.508 20.8354 21.4437H30.7443V25.5493H29.6682C28.7017 25.5493 27.9182 26.3328 27.9182 27.2993V31.824C27.9182 32.7904 28.7017 33.574 29.6682 33.574H33.4679C34.4343 33.574 35.2179 32.7905 35.2179 31.824V27.2993C35.2179 26.3328 34.4344 25.5493 33.4679 25.5493H32.2443V20.6937C32.2443 20.2795 31.9085 19.9437 31.4943 19.9437H20.8355C20.5635 18.8791 19.7254 18.041 18.6609 17.7688V15.5189H26.5081L26.5353 15.5189C28.9169 15.5189 30.8475 13.5883 30.8475 11.2067C30.8475 8.82516 28.9169 6.89451 26.5353 6.89451C26.181 6.89451 25.8367 6.93725 25.5072 7.01784C24.7266 5.65591 23.2585 4.73839 21.5762 4.73839C21.2403 4.73839 20.9129 4.77498 20.5978 4.84439C19.7404 2.27688 17.3169 0.426147 14.4611 0.426147C10.8887 0.426147 7.99277 3.32211 7.99277 6.89446C7.99277 6.92324 7.99295 6.95197 7.99333 6.98066ZM8.88242 14.0188L26.5175 14.0189L26.5353 14.0189C28.0885 14.0189 29.3475 12.7599 29.3475 11.2067C29.3475 9.65358 28.0885 8.39451 26.5353 8.39451C26.302 8.39451 26.0773 8.4226 25.8636 8.47488L24.7672 8.74307L24.2058 7.76377C23.6816 6.84912 22.6993 6.23839 21.5762 6.23839C21.3495 6.23839 21.1303 6.26305 20.9205 6.30927L19.6025 6.59959L19.175 5.31947C18.5159 3.34567 16.6523 1.92615 14.4611 1.92615C11.7172 1.92615 9.49277 4.15054 9.49277 6.89446C9.49277 6.91671 9.49291 6.93891 9.4932 6.96107L9.50943 8.20366L8.29154 8.45072C7.00837 8.71102 6.04302 9.84782 6.04302 11.2067C6.04302 12.7599 7.30209 14.0189 8.85523 14.0189L8.8731 14.0189L8.88242 14.0188ZM17.9108 22.212C18.7495 22.212 19.4293 21.5321 19.4293 20.6934C19.4293 19.8547 18.7495 19.1749 17.9108 19.1749C17.0721 19.1749 16.3923 19.8547 16.3923 20.6934C16.3923 21.5321 17.0721 22.212 17.9108 22.212ZM2.28228 27.2993C2.28228 27.1612 2.39421 27.0493 2.53228 27.0493H6.33197C6.47004 27.0493 6.58197 27.1612 6.58197 27.2993V31.824C6.58197 31.962 6.47004 32.074 6.33197 32.074H2.53228C2.39421 32.074 2.28228 31.962 2.28228 31.824V27.2993ZM15.761 27.2993C15.761 27.1612 15.873 27.0493 16.011 27.0493H19.8107C19.9488 27.0493 20.0607 27.1612 20.0607 27.2993V31.824C20.0607 31.962 19.9488 32.074 19.8107 32.074H16.011C15.873 32.074 15.761 31.962 15.761 31.824V27.2993ZM29.6682 27.0493C29.5301 27.0493 29.4182 27.1612 29.4182 27.2993V31.824C29.4182 31.962 29.5301 32.074 29.6682 32.074H33.4679C33.6059 32.074 33.7179 31.962 33.7179 31.824V27.2993C33.7179 27.1612 33.6059 27.0493 33.4679 27.0493H29.6682Z" fill="#ED0100"/>
</svg>
