<svg width="583" height="509" viewBox="0 0 583 509" fill="none" xmlns="http://www.w3.org/2000/svg">
<path d="M3.45185 271.533C3.45185 271.533 5.86756 276.104 3.72459 280.416C1.56864 284.728 -1.1198 289.027 0.490667 291.183C2.10114 293.339 6.94553 296.027 6.41304 300.599C5.88054 305.171 -0.58731 314.327 3.45185 319.444C7.49101 324.561 14.2186 324.289 14.4914 329.938C14.7641 335.588 8.03649 340.16 9.9197 345.277C11.8029 350.394 22.8424 351.472 22.8424 354.965C22.8424 358.459 18.5305 362.226 22.0372 366.005C25.5309 369.771 42.4668 379.603 44.8825 375.564C47.2982 371.525 52.1815 360.355 48.9736 344.497C48.4411 341.835 44.6487 341.238 44.1032 337.471C43.5707 333.705 45.1812 326.977 42.4927 323.211C39.8043 319.444 31.1935 318.093 30.648 315.132C30.1155 312.171 33.8819 304.911 30.1155 300.326C26.3491 295.755 17.4655 293.599 17.4655 290.638C17.4655 287.676 20.154 283.91 16.3876 279.871C12.5952 275.845 3.45185 271.533 3.45185 271.533Z" fill="#F73722"/>
<path d="M16.3356 303.249C21.9333 320.172 31.7519 343.082 35.7391 354.16C40.5835 367.616 44.7915 377.356 46.9475 390.812C49.1034 404.267 50.2723 494.388 50.2723 494.388" stroke="#263238" stroke-miterlimit="10" stroke-linecap="round" stroke-linejoin="round"/>
<path d="M4.80261 273.156C4.80261 273.156 9.37426 276.923 13.4134 293.339C13.6732 294.391 13.9719 295.521 14.3096 296.69" stroke="#263238" stroke-miterlimit="10" stroke-linecap="round" stroke-linejoin="round"/>
<path d="M87.5728 302.197C87.5728 302.197 85.6377 305.859 87.352 309.301C89.0794 312.743 91.2353 316.197 89.9366 317.912C88.6378 319.626 84.7675 321.795 85.1961 325.445C85.6247 329.107 90.7938 336.432 87.5598 340.523C84.3259 344.614 78.949 344.394 78.7282 348.926C78.5074 353.446 83.8973 357.109 82.3908 361.2C80.8842 365.291 72.0526 366.148 72.0526 368.953C72.0526 371.759 75.4943 374.772 72.702 377.785C69.8966 380.798 56.3505 388.669 54.4153 385.435C52.4802 382.201 48.5839 373.265 51.1424 360.576C51.571 358.446 54.6102 357.966 55.0387 354.953C55.4673 351.94 54.1816 346.55 56.3375 343.536C58.4935 340.523 65.3769 339.445 65.8185 337.069C66.2471 334.705 63.234 328.886 66.2471 325.224C69.2602 321.561 76.3645 319.834 76.3645 317.47C76.3645 315.107 74.2085 312.08 77.2217 308.859C80.2478 305.652 87.5728 302.197 87.5728 302.197Z" fill="#F73722"/>
<path d="M77.2608 327.574C72.78 341.108 64.9225 359.459 61.7275 368.317C57.8442 379.084 54.4804 386.876 52.7531 397.656C51.0257 408.423 50.0906 480.543 50.0906 480.543" stroke="#263238" stroke-miterlimit="10" stroke-linecap="round" stroke-linejoin="round"/>
<path d="M86.4949 303.495C86.4949 303.495 82.8324 306.508 79.5985 319.652C79.3907 320.496 79.1569 321.392 78.8842 322.327" stroke="#263238" stroke-miterlimit="10" stroke-linecap="round" stroke-linejoin="round"/>
<path d="M13.5172 363.187C13.5172 363.187 15.1406 366.252 13.699 369.122C12.2574 371.992 10.4651 374.875 11.543 376.317C12.621 377.759 15.8679 379.551 15.5043 382.616C15.1406 385.681 10.8287 391.798 13.5301 395.214C16.2316 398.63 20.7253 398.448 20.9071 402.227C21.089 406.007 16.5822 409.059 17.842 412.488C19.1018 415.903 26.4788 416.631 26.4788 418.969C26.4788 421.306 23.5956 423.826 25.9334 426.346C28.2711 428.865 39.5964 435.437 41.2068 432.735C42.8303 430.034 46.0902 422.566 43.9343 411.968C43.5706 410.189 41.038 409.786 40.6743 407.267C40.3107 404.747 41.3887 400.253 39.5964 397.734C37.7911 395.214 32.0376 394.318 31.6739 392.331C31.3102 390.357 33.8299 385.486 31.3103 382.434C28.7906 379.369 22.8553 377.941 22.8553 375.953C22.8553 373.979 24.6606 371.46 22.141 368.758C19.6343 366.07 13.5172 363.187 13.5172 363.187Z" fill="#F73722"/>
<path d="M22.1281 384.396C25.8685 395.708 32.4403 411.033 35.1027 418.436C38.3367 427.437 41.155 433.943 42.5966 442.944C44.0382 451.944 44.8175 485.336 44.8175 485.336" stroke="#263238" stroke-miterlimit="10" stroke-linecap="round" stroke-linejoin="round"/>
<path d="M14.4135 364.265C14.4135 364.265 17.4785 366.784 20.167 377.759C20.3358 378.46 20.5436 379.213 20.7644 379.993" stroke="#263238" stroke-miterlimit="10" stroke-linecap="round" stroke-linejoin="round"/>
<path d="M106.197 358.706C106.197 358.706 103.924 361.316 104.665 364.446C105.405 367.576 106.496 370.797 105.119 371.953C103.743 373.109 100.171 374.122 99.8203 377.174C99.4696 380.239 102.275 387.174 98.8592 389.889C95.4435 392.603 91.1056 391.396 90.0666 395.032C89.0276 398.669 92.7031 402.682 90.703 405.721C88.7029 408.76 81.3519 407.773 80.8064 410.046C80.2739 412.319 82.4948 415.436 79.6375 417.345C76.7802 419.267 64.2601 423.072 63.299 420.072C62.3379 417.072 60.8833 409.059 65.39 399.227C66.1433 397.578 68.7019 397.772 69.637 395.396C70.5591 393.032 70.5461 388.395 72.8709 386.356C75.1957 384.317 81.0142 384.759 81.8194 382.915C82.6246 381.07 81.2869 375.758 84.4299 373.369C87.5859 370.966 93.6901 370.927 94.1447 368.992C94.5993 367.07 93.4174 364.199 96.4955 362.147C99.5865 360.108 106.197 358.706 106.197 358.706Z" fill="#F73722"/>
<path d="M92.9629 377.369C86.7288 387.525 76.8322 400.942 72.5463 407.539C67.3382 415.553 61.0782 420.683 59.6365 429.683C58.1949 438.684 57.4156 472.075 57.4156 472.075" stroke="#263238" stroke-miterlimit="10" stroke-linecap="round" stroke-linejoin="round"/>
<path d="M105.08 359.55C105.08 359.55 101.522 361.303 96.3915 371.369C96.0538 372.018 95.6902 372.693 95.3005 373.408" stroke="#263238" stroke-miterlimit="10" stroke-linecap="round" stroke-linejoin="round"/>
<path d="M42.285 504.531H62.299C72.832 499.102 80.3129 485.348 80.3129 469.244C80.3129 458.672 77.0919 449.113 71.8969 442.255H32.6871C27.4921 449.113 24.2711 458.672 24.2711 469.244C24.2711 485.361 31.752 499.102 42.285 504.531Z" fill="white" stroke="#263238" stroke-miterlimit="10" stroke-linecap="round" stroke-linejoin="round"/>
<path d="M62.6627 504.531H42.285V507.518H62.6627V504.531Z" fill="white" stroke="#263238" stroke-miterlimit="10" stroke-linecap="round" stroke-linejoin="round"/>
<path d="M340.417 1H21.3878V242.467H340.417V1Z" stroke="#263238" stroke-miterlimit="10" stroke-linecap="round" stroke-linejoin="round"/>
<path d="M332.962 7.40283H28.8297V236.077H332.962V7.40283Z" stroke="#263238" stroke-miterlimit="10" stroke-linecap="round" stroke-linejoin="round"/>
<path d="M121.536 40.9627C121.536 40.9627 71.845 37.3651 67.663 45.1577C63.468 52.9373 66.4681 195.425 68.8578 197.217C71.2476 199.009 138.303 200.204 144.888 197.815C151.472 195.425 142.498 50.5476 142.498 46.3525C142.498 42.1575 126.939 40.3652 126.939 40.3652" stroke="#263238" stroke-width="2" stroke-miterlimit="10" stroke-linecap="round" stroke-linejoin="round"/>
<path d="M72.7931 158.891C72.897 177.671 73.2996 191.438 74.2477 191.815C77.2349 193.009 140.693 198.399 142.498 192.412C144.29 186.425 137.705 51.1323 137.705 51.1323" stroke="#263238" stroke-width="2" stroke-miterlimit="10" stroke-linecap="round" stroke-linejoin="round"/>
<path d="M135.303 50.5349C135.303 50.5349 74.8451 48.1451 74.2346 51.1323C73.858 53.0415 72.7411 109.135 72.767 149.903" stroke="#263238" stroke-width="2" stroke-miterlimit="10" stroke-linecap="round" stroke-linejoin="round"/>
<path d="M76.0399 61.3145H134.705" stroke="#263238" stroke-width="2" stroke-miterlimit="10" stroke-linecap="round" stroke-linejoin="round"/>
<path d="M129.315 58.6003C125.718 62.3926 129.315 58.6003 131.705 53.1844C134.095 47.7685 129.315 54.2624 123.925 58.6003C118.536 62.9381 121.536 59.6782 123.328 53.7169C125.12 47.7556 121.536 53.7169 116.743 57.5093C111.951 61.3017 114.354 59.6782 116.146 53.1714C117.938 46.6646 116.146 53.1714 108.964 57.5093C101.782 61.8472 105.366 61.8472 108.964 55.3403C112.561 48.8335 106.574 55.3404 99.9892 57.5093C93.4045 59.6782 99.9892 57.5093 102.379 51.548C104.769 45.5866 98.184 53.1714 93.4045 56.4313C88.6121 59.6782 93.4045 56.4313 94.5994 52.6389C95.7942 48.8465 91.6122 53.7169 86.8198 58.6003C82.0273 63.4836 86.8198 58.6003 87.4172 54.2624C88.0146 49.9245 82.0273 61.3017 82.0273 61.3017C82.0273 61.3017 83.8196 50.457 82.6247 53.1714C81.4299 55.8858 79.6376 58.0548 79.6376 58.0548" stroke="#4A7174" stroke-miterlimit="10"/>
<path d="M108.366 71.4839H79.0271V102.018H108.366V71.4839Z" stroke="#4A7174" stroke-miterlimit="10"/>
<path d="M85.0144 71.4839L80.222 76.8738L90.4043 73.2892L80.222 82.8611L96.989 72.0813L80.222 90.0432L102.976 73.2892L79.0271 95.4331L107.769 75.6789L79.0271 102.018L107.769 82.8611L87.4171 100.823L108.366 89.4458L95.1967 100.226L107.769 96.0306L105.366 100.226" stroke="#4A7174" stroke-miterlimit="10"/>
<path d="M133.653 164.878H111.223V188.23H133.653V164.878Z" stroke="#4A7174" stroke-miterlimit="10"/>
<path d="M115.795 164.878L112.133 168.995L119.912 166.255L112.133 173.58L124.951 165.333L112.133 179.073L129.523 166.255L111.223 183.191L133.186 168.086L111.223 188.23L133.186 173.58L117.626 187.308L133.653 178.606L123.575 186.853L133.186 183.645L131.354 186.853" stroke="#4A7174" stroke-miterlimit="10"/>
<path d="M78.4297 113.395H135.9" stroke="#263238" stroke-width="2" stroke-miterlimit="10" stroke-linecap="round" stroke-linejoin="round"/>
<path d="M77.8323 118.785L134.705 119.382" stroke="#263238" stroke-width="2" stroke-miterlimit="10" stroke-linecap="round" stroke-linejoin="round"/>
<path d="M114.354 73.2893H132.913" stroke="#263238" stroke-width="2" stroke-miterlimit="10" stroke-linecap="round" stroke-linejoin="round"/>
<path d="M114.354 80.4714H132.913" stroke="#263238" stroke-width="2" stroke-miterlimit="10" stroke-linecap="round" stroke-linejoin="round"/>
<path d="M114.354 87.6536H132.913" stroke="#263238" stroke-width="2" stroke-miterlimit="10" stroke-linecap="round" stroke-linejoin="round"/>
<path d="M114.354 94.8357H132.913" stroke="#263238" stroke-width="2" stroke-miterlimit="10" stroke-linecap="round" stroke-linejoin="round"/>
<path d="M134.705 122.369H79.0271V149.306H134.705V122.369Z" stroke="#4A7174" stroke-miterlimit="10"/>
<path d="M78.4296 127.759L86.2092 122.967L77.2347 136.747L92.1965 122.967L79.027 142.721L102.379 122.369L82.0272 146.319L107.171 122.967L88.0145 146.319L115.548 122.369L93.4044 148.708L120.938 122.967L99.9891 147.513L128.12 122.369L106.574 148.708L134.705 122.369L114.353 148.111L133.51 131.357L120.938 146.916L133.51 138.539L131.043 142.539L128.718 146.319" stroke="#4A7174" stroke-miterlimit="10"/>
<path d="M81.4298 156.501H132.913" stroke="#263238" stroke-width="2" stroke-miterlimit="10" stroke-linecap="round" stroke-linejoin="round"/>
<path d="M80.2219 163.086H96.989" stroke="#263238" stroke-width="2" stroke-miterlimit="10" stroke-linecap="round" stroke-linejoin="round"/>
<path d="M144.887 54.1323L185.98 49.0801" stroke="#263238" stroke-width="2" stroke-miterlimit="10" stroke-linecap="round" stroke-linejoin="round"/>
<path d="M138.303 83.4585H181.396" stroke="#263238" stroke-width="2" stroke-miterlimit="10" stroke-linecap="round" stroke-linejoin="round"/>
<path d="M70.0525 137.942L51.4932 144.527" stroke="#263238" stroke-width="2" stroke-miterlimit="10" stroke-linecap="round" stroke-linejoin="round"/>
<path d="M122.73 192.412C122.73 192.412 119.133 210.971 143.679 215.764" stroke="#263238" stroke-width="2" stroke-miterlimit="10" stroke-linecap="round" stroke-linejoin="round"/>
<path d="M140.095 210.971L146.082 216.361L137.692 218.751" stroke="#263238" stroke-width="2" stroke-miterlimit="10" stroke-linecap="round" stroke-linejoin="round"/>
<path d="M176.006 78.0684L185.591 84.0557L177.214 87.6533" stroke="#263238" stroke-width="2" stroke-miterlimit="10" stroke-linecap="round" stroke-linejoin="round"/>
<path d="M178.201 47.2878L188.37 48.4827L181.188 55.0674" stroke="#263238" stroke-width="2" stroke-miterlimit="10" stroke-linecap="round" stroke-linejoin="round"/>
<path d="M53.8831 138.539L43.7137 146.916L56.2858 147.514" stroke="#263238" stroke-width="2" stroke-miterlimit="10" stroke-linecap="round" stroke-linejoin="round"/>
<path d="M211.332 78.0684H188.578V102.018H211.332V78.0684Z" fill="#4A7174"/>
<path d="M193.968 83.4585L207.137 84.0559" stroke="#263238" stroke-width="2" stroke-miterlimit="10" stroke-linecap="round" stroke-linejoin="round"/>
<path d="M193.968 88.2507L207.137 88.8482" stroke="#263238" stroke-width="2" stroke-miterlimit="10" stroke-linecap="round" stroke-linejoin="round"/>
<path d="M193.968 93.0435L207.137 93.6409" stroke="#263238" stroke-width="2" stroke-miterlimit="10" stroke-linecap="round" stroke-linejoin="round"/>
<path d="M175.128 110.353L152.531 113.017L155.335 136.801L177.933 134.137L175.128 110.353Z" fill="#4A7174"/>
<path d="M158.525 117.733L171.668 116.785" stroke="#263238" stroke-width="2" stroke-miterlimit="10" stroke-linecap="round" stroke-linejoin="round"/>
<path d="M159.083 122.486L172.226 121.538" stroke="#263238" stroke-width="2" stroke-miterlimit="10" stroke-linecap="round" stroke-linejoin="round"/>
<path d="M159.641 127.24L172.798 126.292" stroke="#263238" stroke-width="2" stroke-miterlimit="10" stroke-linecap="round" stroke-linejoin="round"/>
<path d="M57.2014 151.053L34.604 153.717L37.4085 177.501L60.0058 174.836L57.2014 151.053Z" fill="#4A7174"/>
<path d="M40.5835 158.436L53.74 157.488" stroke="#263238" stroke-width="2" stroke-miterlimit="10" stroke-linecap="round" stroke-linejoin="round"/>
<path d="M41.1421 163.202L54.2986 162.254" stroke="#263238" stroke-width="2" stroke-miterlimit="10" stroke-linecap="round" stroke-linejoin="round"/>
<path d="M41.7136 167.956L54.8571 167.008" stroke="#263238" stroke-width="2" stroke-miterlimit="10" stroke-linecap="round" stroke-linejoin="round"/>
<path d="M174.819 200.872L152.192 198.467L149.66 222.282L172.287 224.687L174.819 200.872Z" fill="#4A7174"/>
<path d="M156.992 204.386L170.019 206.373" stroke="#263238" stroke-width="2" stroke-miterlimit="10" stroke-linecap="round" stroke-linejoin="round"/>
<path d="M156.485 209.153L169.512 211.14" stroke="#263238" stroke-width="2" stroke-miterlimit="10" stroke-linecap="round" stroke-linejoin="round"/>
<path d="M155.979 213.919L169.006 215.907" stroke="#263238" stroke-width="2" stroke-miterlimit="10" stroke-linecap="round" stroke-linejoin="round"/>
<path d="M340.404 242.466H21.3878V250.623H340.404V242.466Z" fill="#263238" stroke="#263238" stroke-miterlimit="10" stroke-linecap="round" stroke-linejoin="round"/>
<path d="M468.423 300.923V285.689H422.615V300.923C422.615 305.898 420.901 310.716 417.745 314.612L415.745 317.093H475.306L473.306 314.612C470.137 310.716 468.423 305.898 468.423 300.923Z" fill="#263238" stroke="#4A7174" stroke-miterlimit="10" stroke-linecap="round" stroke-linejoin="round"/>
<path d="M465.825 300.923V285.689H420.018V300.923C420.018 305.898 418.303 310.716 415.147 314.612L413.147 317.093H472.709L470.709 314.612C467.54 310.716 465.825 305.898 465.825 300.923Z" fill="white" stroke="#4A7174" stroke-miterlimit="10" stroke-linecap="round" stroke-linejoin="round"/>
<path d="M420.699 290.501H465.689V294.163H420.699V290.501Z" fill="#263238" stroke="#4A7174"/>
<path d="M523.958 290.494H361.872C355.781 290.494 350.859 285.559 350.859 279.481V166.332C350.859 160.241 355.794 155.319 361.872 155.319H523.958C530.049 155.319 534.972 160.254 534.972 166.332V279.481C534.985 285.572 530.049 290.494 523.958 290.494Z" fill="#263238" stroke="#4A7174" stroke-miterlimit="10" stroke-linecap="round" stroke-linejoin="round"/>
<path d="M528.906 290.494H366.82C360.729 290.494 355.807 285.559 355.807 279.481V166.332C355.807 160.241 360.742 155.319 366.82 155.319H528.906C534.998 155.319 539.92 160.254 539.92 166.332V279.481C539.92 285.572 534.985 290.494 528.906 290.494Z" fill="#263238" stroke="#4A7174" stroke-miterlimit="10" stroke-linecap="round" stroke-linejoin="round"/>
<path d="M523.958 290.494H361.872C355.781 290.494 350.859 285.559 350.859 279.481V269.48H534.972V279.481C534.985 285.572 530.049 290.494 523.958 290.494Z" fill="white" stroke="#4A7174" stroke-miterlimit="10" stroke-linecap="round" stroke-linejoin="round"/>
<path d="M360.619 164.222H525.211V258.733H360.619V164.222Z" fill="white" stroke="#4A7174"/>
<path d="M417.758 248.33H385.172C383.266 248.33 381.724 246.788 381.724 244.882V177.593C381.724 175.687 383.266 174.145 385.172 174.145H417.758C419.664 174.145 421.206 175.687 421.206 177.593V244.882C421.206 246.788 419.664 248.33 417.758 248.33Z" fill="#263238" stroke="#4A7174"/>
<path d="M385.126 180.47H417.803V242.018H385.126V180.47Z" fill="#F73722" stroke="#4A7174"/>
<path d="M432.713 181.522H462.195V183.678H432.713V181.522Z" fill="#263238" stroke="#4A7174"/>
<path d="M432.873 187.887H446.069V201.602H432.873V187.887Z" fill="#F73722" stroke="#4A7174"/>
<path d="M453.493 233.563H460.091V240.446H453.493V233.563Z" fill="#F73722" stroke="#4A7174"/>
<path d="M433.596 213.588H461.507V227.303H433.596V213.588Z" fill="#F73722" stroke="#4A7174"/>
<path d="M449.565 188.918H461.124" stroke="#4A7174" stroke-miterlimit="10" stroke-linecap="round" stroke-linejoin="round"/>
<path d="M449.565 192.594H461.124" stroke="#4A7174" stroke-miterlimit="10" stroke-linecap="round" stroke-linejoin="round"/>
<path d="M449.565 196.269H461.124" stroke="#4A7174" stroke-miterlimit="10" stroke-linecap="round" stroke-linejoin="round"/>
<path d="M449.565 199.945H461.124" stroke="#4A7174" stroke-miterlimit="10" stroke-linecap="round" stroke-linejoin="round"/>
<path d="M433.616 208.361H461.474" stroke="#4A7174" stroke-miterlimit="10" stroke-linecap="round" stroke-linejoin="round"/>
<path d="M433.616 231.491H461.474" stroke="#4A7174" stroke-miterlimit="10" stroke-linecap="round" stroke-linejoin="round"/>
<path d="M465.332 177.879H429.59V244.116H465.332V177.879Z" stroke="#4A7174" stroke-miterlimit="10" stroke-linecap="round" stroke-linejoin="round"/>
<path d="M475.819 178.379H508.457V202.081H475.819V178.379Z" fill="#BFBFBF" stroke="#4A7174"/>
<path d="M475.819 178.379H508.457V182.639H475.819V178.379Z" fill="#263238" stroke="#4A7174"/>
<path d="M486.722 186.957H477.93V195.464H486.722V186.957Z" stroke="#4A7174" stroke-miterlimit="10" stroke-linecap="round" stroke-linejoin="round"/>
<path d="M504.308 186.957H495.515V195.464H504.308V186.957Z" stroke="#4A7174" stroke-miterlimit="10" stroke-linecap="round" stroke-linejoin="round"/>
<path d="M505.223 180.866C505.223 181.291 504.876 181.638 504.45 181.638C504.025 181.638 503.678 181.291 503.678 180.866C503.678 180.44 504.025 180.093 504.45 180.093C504.876 180.093 505.223 180.44 505.223 180.866Z" fill="white" stroke="#4A7174"/>
<path d="M499.119 180.866C499.119 181.292 498.773 181.638 498.346 181.638C497.919 181.638 497.573 181.292 497.573 180.866C497.573 180.439 497.919 180.093 498.346 180.093C498.773 180.093 499.119 180.439 499.119 180.866Z" fill="white" stroke="#4A7174"/>
<path d="M481.014 216.471H505.769V234.394H481.014V216.471Z" fill="#BFBFBF" stroke="#4A7174"/>
<path d="M481.014 216.471H505.769V219.498H481.014V216.471Z" fill="#263238" stroke="#4A7174"/>
<path d="M503.301 218.257C503.301 218.522 503.088 218.731 502.827 218.731C502.562 218.731 502.353 218.518 502.353 218.257C502.353 217.992 502.566 217.783 502.827 217.783C503.083 217.783 503.301 218.001 503.301 218.257Z" fill="white" stroke="#4A7174"/>
<path d="M498.626 218.257C498.626 218.522 498.412 218.731 498.151 218.731C497.886 218.731 497.677 218.518 497.677 218.257C497.677 217.992 497.891 217.783 498.151 217.783C498.408 217.783 498.626 218.001 498.626 218.257Z" fill="white" stroke="#4A7174"/>
<path d="M366.073 169.235H375.892V253.084H366.073V169.235Z" fill="#BFBFBF" stroke="#4A7174"/>
<path d="M366.073 169.235H375.892V172.132H366.073V169.235Z" fill="#263238" stroke="#4A7174"/>
<path d="M373.366 175.229H368.171V181.294H373.366V175.229Z" stroke="#4A7174" stroke-miterlimit="10" stroke-linecap="round" stroke-linejoin="round"/>
<path d="M373.366 185.177H368.171V191.243H373.366V185.177Z" stroke="#4A7174" stroke-miterlimit="10" stroke-linecap="round" stroke-linejoin="round"/>
<path d="M373.366 195.139H368.171V201.205H373.366V195.139Z" stroke="#4A7174" stroke-miterlimit="10" stroke-linecap="round" stroke-linejoin="round"/>
<path d="M373.366 205.101H368.171V211.166H373.366V205.101Z" stroke="#4A7174" stroke-miterlimit="10" stroke-linecap="round" stroke-linejoin="round"/>
<path d="M373.366 215.049H368.171V221.115H373.366V215.049Z" stroke="#4A7174" stroke-miterlimit="10" stroke-linecap="round" stroke-linejoin="round"/>
<path d="M373.366 225.011H368.171V231.076H373.366V225.011Z" stroke="#4A7174" stroke-miterlimit="10" stroke-linecap="round" stroke-linejoin="round"/>
<path d="M373.366 234.972H368.171V241.038H373.366V234.972Z" stroke="#4A7174" stroke-miterlimit="10" stroke-linecap="round" stroke-linejoin="round"/>
<path d="M373.366 244.921H368.171V250.986H373.366V244.921Z" stroke="#4A7174" stroke-miterlimit="10" stroke-linecap="round" stroke-linejoin="round"/>
<path d="M383.828 168.365H520.497V170.833H383.828V168.365Z" fill="#BFBFBF" stroke="#4A7174"/>
<path d="M383.828 252.356H520.497V254.824H383.828V252.356Z" fill="#BFBFBF" stroke="#4A7174"/>
<path d="M472.709 317.093H413.147V319.808H472.709V317.093Z" fill="#263238" stroke="#4A7174" stroke-miterlimit="10" stroke-linecap="round" stroke-linejoin="round"/>
<path d="M511.646 314.872H373.366V319.808H511.646V314.872Z" fill="white" stroke="#4A7174" stroke-miterlimit="10" stroke-linecap="round" stroke-linejoin="round"/>
<path d="M249.451 507.518H243.827L241.009 335.211H252.269L249.451 507.518Z" fill="white" stroke="#263238" stroke-miterlimit="10" stroke-linecap="round" stroke-linejoin="round"/>
<path d="M249.451 507.518H246.97L247.308 335.211H252.269L249.451 507.518Z" fill="#263238" stroke="#263238" stroke-miterlimit="10" stroke-linecap="round" stroke-linejoin="round"/>
<path d="M329.624 507.518H324L321.182 335.211H332.442L329.624 507.518Z" fill="white" stroke="#263238" stroke-miterlimit="10" stroke-linecap="round" stroke-linejoin="round"/>
<path d="M329.624 507.518H327.143L327.468 335.211H332.442L329.624 507.518Z" fill="#263238" stroke="#263238" stroke-miterlimit="10" stroke-linecap="round" stroke-linejoin="round"/>
<path d="M300.921 507.518H295.284L292.479 335.211H303.726L300.921 507.518Z" fill="#263238" stroke="#263238" stroke-miterlimit="10" stroke-linecap="round" stroke-linejoin="round"/>
<path d="M300.921 507.518H298.441L298.765 335.211H303.727L300.921 507.518Z" fill="#263238" stroke="#263238" stroke-miterlimit="10" stroke-linecap="round" stroke-linejoin="round"/>
<path d="M355.093 507.518H349.456L346.651 335.211H357.898L355.093 507.518Z" fill="#263238" stroke="#263238" stroke-miterlimit="10" stroke-linecap="round" stroke-linejoin="round"/>
<path d="M355.093 507.518H352.599L352.937 335.211H357.898L355.093 507.518Z" fill="#263238" stroke="#263238" stroke-miterlimit="10" stroke-linecap="round" stroke-linejoin="round"/>
<path d="M359.314 337.847H271.024V445.645H359.314V337.847Z" fill="#263238" stroke="#263238" stroke-miterlimit="10" stroke-linecap="round" stroke-linejoin="round"/>
<path d="M334.936 337.847H246.646V445.645H334.936V337.847Z" fill="white" stroke="#263238" stroke-miterlimit="10" stroke-linecap="round" stroke-linejoin="round"/>
<path d="M513.256 507.518H507.633L504.814 335.211H516.075L513.256 507.518Z" fill="white" stroke="#263238" stroke-miterlimit="10" stroke-linecap="round" stroke-linejoin="round"/>
<path d="M513.256 507.518H510.776L511.113 335.211H516.075L513.256 507.518Z" fill="#263238" stroke="#263238" stroke-miterlimit="10" stroke-linecap="round" stroke-linejoin="round"/>
<path d="M564.726 507.518H559.09L556.284 335.211H567.532L564.726 507.518Z" fill="#263238" stroke="#263238" stroke-miterlimit="10" stroke-linecap="round" stroke-linejoin="round"/>
<path d="M564.726 507.518H562.233L562.57 335.211H567.532L564.726 507.518Z" fill="#263238" stroke="#263238" stroke-miterlimit="10" stroke-linecap="round" stroke-linejoin="round"/>
<path d="M571.09 328.717H233.593V340.575H571.09V328.717Z" fill="white" stroke="#263238" stroke-miterlimit="10" stroke-linecap="round" stroke-linejoin="round"/>
<path d="M571.09 328.717H233.593V334.64H571.09V328.717Z" fill="#263238" stroke="#263238" stroke-miterlimit="10" stroke-linecap="round" stroke-linejoin="round"/>
<path d="M571.09 328.717H521.27V340.575H571.09V328.717Z" fill="#263238" stroke="#263238" stroke-miterlimit="10" stroke-linecap="round" stroke-linejoin="round"/>
<path d="M582 319.197H224.437V331.055H582V319.197Z" fill="white" stroke="#263238" stroke-miterlimit="10" stroke-linecap="round" stroke-linejoin="round"/>
<path d="M582 319.197H532.179V331.055H582V319.197Z" fill="#263238" stroke="#263238" stroke-miterlimit="10" stroke-linecap="round" stroke-linejoin="round"/>
<path d="M329.533 348.198H252.256V385.863H329.533V348.198Z" fill="white" stroke="#263238" stroke-miterlimit="10" stroke-linecap="round" stroke-linejoin="round"/>
<path d="M299.337 363.134H282.453V368.979H299.337V363.134Z" fill="#263238" stroke="#263238" stroke-miterlimit="10" stroke-linecap="round" stroke-linejoin="round"/>
<path d="M329.533 395.604H252.256V433.268H329.533V395.604Z" fill="white" stroke="#263238" stroke-miterlimit="10" stroke-linecap="round" stroke-linejoin="round"/>
<path d="M299.337 410.539H282.453V416.384H299.337V410.539Z" fill="#263238" stroke="#263238" stroke-miterlimit="10" stroke-linecap="round" stroke-linejoin="round"/>
<path d="M448.489 406.822H471.581V360.378H448.489V406.822Z" fill="#263238"/>
<path d="M454.268 454.646H465.814V390.331H454.268V454.646Z" fill="#263238"/>
<path d="M464.735 449.697C464.735 449.697 474.436 460.698 499.373 464.542C512.542 466.568 526.257 469.088 538.154 475.387C545.804 479.439 561.038 488.309 561.038 498.44C561.038 503.453 556.973 507.518 551.96 507.518C546.947 507.518 542.881 503.453 542.881 498.44C542.881 496.037 543.83 493.881 545.349 492.258C544.089 490.193 535.829 477.789 518.452 474.01C499.49 469.893 485.645 471.568 458.955 453.827L464.735 449.697Z" fill="#263238"/>
<path d="M456.488 449.697C456.488 449.697 446.786 460.698 421.849 464.542C408.68 466.568 394.965 469.088 383.068 475.387C375.419 479.439 360.184 488.309 360.184 498.44C360.184 503.453 364.249 507.518 369.262 507.518C374.276 507.518 378.341 503.453 378.341 498.44C378.341 496.037 377.393 493.881 375.873 492.258C377.133 490.193 385.393 477.789 402.771 474.01C421.733 469.893 435.577 471.568 462.267 453.827L456.488 449.697Z" fill="#263238"/>
<path d="M456.084 490.478H464.812C465.28 490.478 465.669 490.855 465.669 491.335V506.661C465.669 507.128 465.293 507.518 464.812 507.518H456.084C455.617 507.518 455.227 507.141 455.227 506.661V491.335C455.24 490.868 455.617 490.478 456.084 490.478Z" fill="#263238"/>
<path d="M457.977 507.513H462.925V451.237H457.977V507.513Z" fill="#263238"/>
<path d="M515.958 226.284C513.295 240.895 511.243 256.869 510.75 272.857C510.386 284.91 510.178 295.235 510.009 304.339C509.451 332.626 509.152 348.329 504.698 352.55C504.126 352.939 500.451 355.212 492.723 355.848C490.567 356.03 483.722 356.121 474.397 356.173C444.824 356.082 413.745 355.835 413.238 355.835H411.433C411.355 355.9 411.29 355.978 411.225 356.043C393.471 355.939 388.887 355.835 388.562 355.835H386.757C383.029 359.069 385.263 363.225 388.497 363.251C390.939 363.277 433.265 363.615 462.202 363.615C467.332 363.615 472.138 363.602 476.423 363.576C483.463 363.602 490.164 363.615 495.97 363.615C511.126 363.615 523.686 363.524 527.101 363.238C537.816 362.342 542.622 358.732 543.128 358.316C550.271 351.978 550.544 338.068 551.193 304.469C551.375 295.378 551.57 285.066 551.934 273.065C552.427 256.973 554.544 240.895 557.259 226.271H515.958V226.284Z" fill="#263238"/>
<path d="M286.349 468.776L289.271 484.037C289.271 484.037 286.673 489.557 276.608 494.102C266.543 498.648 261.672 500.596 261.672 501.895C261.672 503.194 261.023 506.116 263.62 507.09C266.218 508.064 321.415 507.09 321.415 507.09C321.415 507.09 324.338 505.791 324.338 499.622C324.338 493.453 321.74 482.089 321.74 479.491C321.74 476.894 319.909 470.634 319.909 469.763C319.909 468.88 297.713 470.075 297.713 470.075C297.713 470.075 291.219 463.906 286.349 468.776Z" fill="#282828" stroke="#263238" stroke-miterlimit="10" stroke-linecap="round" stroke-linejoin="round"/>
<path d="M297.713 470.075C297.713 470.075 299.336 484.686 300.311 485.66C301.285 486.634 321.74 486.634 321.74 486.634" fill="black"/>
<path d="M297.713 470.075C297.713 470.075 299.336 484.686 300.311 485.66C301.285 486.634 321.74 486.634 321.74 486.634" stroke="#263238" stroke-miterlimit="10" stroke-linecap="round" stroke-linejoin="round"/>
<path d="M321.74 479.491L299.012 479.816" stroke="#263238" stroke-miterlimit="10" stroke-linecap="round" stroke-linejoin="round"/>
<path d="M261.672 504.493H323.688" stroke="#263238" stroke-miterlimit="10" stroke-linecap="round" stroke-linejoin="round"/>
<path d="M326.935 285.754C326.935 285.754 308.934 346.355 306.739 354.693C304.544 363.031 317.272 436.372 317.272 437.684C317.272 438.996 319.026 442.957 319.026 447.347C319.026 451.737 317.272 453.061 318.143 454.373C319.026 455.685 322.091 458.763 321.649 461.399C321.208 464.036 320.766 464.906 319.013 466.672C317.259 468.426 315.506 468.867 315.506 468.867H304.973C304.973 468.867 302.336 449.1 295.31 396.851C288.284 344.588 299.7 314.73 301.895 305.067C304.09 295.404 308.48 287.066 308.48 287.066L326.935 285.754Z" fill="#263238" stroke="#263238" stroke-miterlimit="10" stroke-linecap="round" stroke-linejoin="round"/>
<path d="M271.413 468.776L274.335 484.037C274.335 484.037 271.738 489.557 261.672 494.102C251.607 498.648 246.736 500.596 246.736 501.895C246.736 503.194 246.087 506.116 248.685 507.09C251.282 508.064 306.48 507.09 306.48 507.09C306.48 507.09 309.402 505.791 309.402 499.622C309.402 493.453 306.804 482.089 306.804 479.491C306.804 476.894 304.973 470.634 304.973 469.763C304.973 468.88 282.777 470.075 282.777 470.075C282.777 470.075 276.283 463.906 271.413 468.776Z" fill="#494949" stroke="#263238" stroke-miterlimit="10" stroke-linecap="round" stroke-linejoin="round"/>
<path d="M282.777 470.075C282.777 470.075 284.401 484.686 285.375 485.66C286.349 486.634 306.804 486.634 306.804 486.634" fill="#070707"/>
<path d="M282.777 470.075C282.777 470.075 284.401 484.686 285.375 485.66C286.349 486.634 306.804 486.634 306.804 486.634" stroke="#263238" stroke-miterlimit="10" stroke-linecap="round" stroke-linejoin="round"/>
<path d="M306.804 479.491L284.076 479.816" stroke="#263238" stroke-miterlimit="10" stroke-linecap="round" stroke-linejoin="round"/>
<path d="M246.736 504.493H308.753" stroke="#263238" stroke-miterlimit="10" stroke-linecap="round" stroke-linejoin="round"/>
<path d="M254.477 285.754C254.477 285.754 254.035 323.964 256.23 340.212C258.425 356.459 266.763 394.227 268.088 414.865C269.4 435.502 271.595 445.165 271.595 445.165C271.595 445.165 268.517 447.801 268.517 450.438C268.517 453.074 270.27 453.074 269.828 457.023C269.387 460.971 267.634 462.296 268.945 464.049C270.257 465.802 271.14 469.322 275.53 470.192C279.92 471.075 300.557 470.634 304.947 469.751C309.337 468.867 311.532 464.478 311.532 460.971C311.532 457.464 310.22 454.828 310.22 450.867C310.22 446.905 312.415 443.399 312.415 440.762C312.415 438.126 311.532 436.814 311.532 434.177C311.532 431.541 305.817 389.383 305.817 380.603C305.817 371.824 305.376 341.965 306.7 334.497C308.012 327.029 314.61 291.456 314.61 291.456L254.477 285.754Z" fill="#4A7174"/>
<path d="M282.31 298.638C282.31 298.638 289.803 301.391 298.479 301.794C307.155 302.184 311.09 302.976 311.09 302.976L313.454 291.936L282.31 298.638Z" fill="#263238" stroke="#263238" stroke-miterlimit="10" stroke-linecap="round" stroke-linejoin="round"/>
<path d="M277.491 300.534C277.491 300.534 279.647 360.875 283.959 380.993C288.271 401.111 294.011 434.151 292.583 438.463C291.141 442.775 288.985 452.828 288.985 452.828C288.985 452.828 296.882 451.386 296.882 455.698C296.882 460.01 285.388 462.88 288.258 465.036C291.128 467.192 293.985 469.569 293.985 469.569" stroke="#263238" stroke-miterlimit="10" stroke-linecap="round" stroke-linejoin="round"/>
<path d="M303.012 454.75C303.012 454.75 279.166 458.62 285.933 459.906C292.7 461.192 305.596 459.581 306.233 457.971C306.882 456.36 304.947 454.425 303.012 454.75Z" fill="#263238" stroke="#263238" stroke-miterlimit="10" stroke-linecap="round" stroke-linejoin="round"/>
<path d="M197.76 37.5604L197.098 64.5228L222.527 64.302L222.748 37.3396L197.76 37.5604Z" fill="#4A7174"/>
<path d="M226.696 87.3159C226.696 87.3159 221.216 81.8351 218.8 76.7959C216.384 71.7567 212.878 68.6916 212.878 65.1849C212.878 61.6783 214.41 53.574 213.761 50.2751C213.111 46.9762 213.761 40.1967 215.956 40.1967C218.151 40.1967 219.683 42.1708 219.242 44.3657C218.8 46.5606 220.553 54.2233 220.553 54.2233C220.553 54.2233 222.307 39.5343 222.527 38.6641C222.748 37.781 225.813 37.781 227.125 38.4433C228.437 39.1057 229.969 38.8849 229.969 41.7292C229.969 44.5735 229.307 47.8724 229.307 48.5218C229.307 49.1841 235.45 52.6908 235.658 55.3143C235.879 57.9508 235.216 64.3018 233.684 66.9253C232.151 69.5618 231.268 71.3151 231.047 72.1853C230.827 73.0684 236.97 82.2637 236.97 82.2637L226.696 87.3159Z" fill="white" stroke="#263238" stroke-miterlimit="10" stroke-linecap="round" stroke-linejoin="round"/>
<path d="M236.918 78.0557L221.982 89.4718C221.982 89.4718 247.451 142.163 248.334 143.929C249.217 145.682 267.659 157.099 267.659 157.099L295.323 122.85C295.323 122.85 260.633 111.876 259.75 110.551C258.867 109.226 236.918 78.0557 236.918 78.0557Z" fill="#263238" stroke="#263238" stroke-miterlimit="10" stroke-linecap="round" stroke-linejoin="round"/>
<path d="M254.529 271.689L253.23 292.144C253.23 292.144 270.114 299.287 288.297 298.963C306.48 298.638 330.832 291.495 330.832 291.495L334.403 271.364C334.403 271.364 290.57 274.936 277.258 273.637C263.945 272.338 254.529 271.689 254.529 271.689Z" fill="#F73722" stroke="#263238" stroke-miterlimit="10" stroke-linecap="round" stroke-linejoin="round"/>
<path d="M241.541 265.195L240.567 271.039C240.567 271.039 254.321 278.546 284.725 281.429C315.571 284.352 340.248 275.585 340.248 275.585L340.572 265.52C340.572 265.52 316.545 271.689 291.219 271.364C265.893 271.039 241.541 265.195 241.541 265.195Z" fill="#263238" stroke="#263238" stroke-miterlimit="10" stroke-linecap="round" stroke-linejoin="round"/>
<path d="M266.218 144.409C266.218 144.409 255.503 163.242 251.931 177.853C248.36 192.464 241.217 260 240.242 263.896C239.268 267.792 261.997 275.585 276.933 275.91C291.868 276.234 325.312 276.884 331.156 274.611C337.001 272.338 342.52 269.091 342.52 265.519C342.52 261.948 342.845 248.635 342.845 237.921C342.845 227.206 339.598 170.709 336.676 157.722C333.754 144.734 331.805 135.643 330.831 134.019C329.857 132.396 322.714 124.603 308.103 125.577C293.492 126.551 281.154 132.071 275.634 135.318C270.114 138.565 266.218 144.409 266.218 144.409Z" fill="#263238" stroke="#263238" stroke-miterlimit="10" stroke-linecap="round" stroke-linejoin="round"/>
<path d="M168.291 165.397C168.291 165.397 163.018 167.592 162.576 172.865C162.135 178.138 171.798 183.398 177.512 191.308C183.227 199.217 190.682 207.555 190.682 207.555L202.098 223.361L215.709 211.945L180.577 171.112C180.577 171.112 182.331 167.164 180.136 165.839C177.954 164.514 172.239 163.644 168.291 165.397Z" fill="white" stroke="#263238" stroke-miterlimit="10" stroke-linecap="round" stroke-linejoin="round"/>
<path d="M169.174 177.697L208.696 164.527C208.696 164.527 211.332 175.502 223.19 186.918C235.047 198.334 246.022 205.802 246.022 205.802L210.449 225.998L169.174 177.697Z" fill="white" stroke="#263238" stroke-miterlimit="10" stroke-linecap="round" stroke-linejoin="round"/>
<path d="M169.174 177.697C169.174 177.697 171.811 175.06 172.252 170.67C172.694 166.281 168.304 165.397 168.304 165.397L207.384 153.981C207.384 153.981 214.852 156.618 208.696 164.514L169.174 177.697Z" fill="white" stroke="#263238" stroke-miterlimit="10" stroke-linecap="round" stroke-linejoin="round"/>
<path d="M221.54 219.452C221.54 219.452 212.761 218.14 212.319 215.504C211.878 212.868 210.124 207.166 208.371 204.971C206.618 202.776 198.266 198.386 195.63 195.308C192.993 192.23 191.24 187.84 189.487 188.282C187.733 188.723 185.097 190.477 185.98 192.23C186.863 193.983 190.812 201.451 190.812 201.451L191.695 204.529C191.695 204.529 183.785 203.218 182.473 202.776C181.162 202.335 179.395 203.218 179.395 205.413C179.395 207.607 177.642 207.607 179.837 208.919C182.032 210.231 184.668 211.997 184.668 211.997C184.668 211.997 187.746 219.024 188.617 220.335C189.5 221.647 196.526 224.725 197.838 225.608C199.15 226.492 206.176 228.686 209.696 229.557C213.202 230.44 221.112 233.505 221.112 233.505L223.307 223.4L221.54 219.452Z" fill="white" stroke="#263238" stroke-miterlimit="10" stroke-linecap="round" stroke-linejoin="round"/>
<path d="M314.636 158.852C314.636 158.852 313.753 196.178 313.753 197.932C313.753 199.685 315.065 235.7 311.116 238.765C307.168 241.843 287.842 245.791 259.737 244.908C231.632 244.025 219.333 237.882 219.333 237.882L221.527 219.439L275.102 215.491C275.102 215.491 269.387 174.658 270.27 160.605C271.153 146.552 282.569 139.084 282.569 139.084" fill="#263238"/>
<path d="M314.636 158.852C314.636 158.852 313.753 196.178 313.753 197.932C313.753 199.685 315.065 235.7 311.116 238.765C307.168 241.843 287.842 245.791 259.737 244.908C231.632 244.025 219.333 237.882 219.333 237.882L221.527 219.439L275.102 215.491C275.102 215.491 269.387 174.658 270.27 160.605C271.153 146.552 282.569 139.084 282.569 139.084" stroke="#263238" stroke-miterlimit="10" stroke-linecap="round" stroke-linejoin="round"/>
<path d="M255.516 246.557C255.516 246.557 308.701 248.427 311.493 241.895C314.298 235.362 314.298 170.982 314.298 170.982" stroke="#707070" stroke-miterlimit="10" stroke-linecap="round" stroke-linejoin="round"/>
<path d="M278.842 146.721C278.842 146.721 267.647 158.851 269.517 174.709C271.387 190.567 275.127 215.491 275.127 215.491L254.594 216.685" stroke="#707070" stroke-miterlimit="10" stroke-linecap="round" stroke-linejoin="round"/>
<path d="M256.191 45.3137C256.191 45.3137 248.827 58.0546 250.243 59.7429C251.659 61.4443 250.529 64.5484 250.529 64.5484C250.529 64.5484 243.165 70.211 243.736 72.1851C244.308 74.1722 250.243 79.5491 250.243 79.5491C250.243 79.5491 251.373 94.8356 252.789 96.2512C254.204 97.6669 263.828 99.3683 265.815 99.654C267.802 99.9398 268.932 100.498 268.932 100.498L274.595 131.071L306.298 102.485L301.207 88.9002C301.207 88.9002 298.375 70.7825 298.661 62.2885C298.947 53.7946 284.232 43.6123 275.452 41.0537C266.659 38.5211 256.191 45.3137 256.191 45.3137Z" fill="white" stroke="#263238" stroke-miterlimit="10" stroke-linecap="round" stroke-linejoin="round"/>
<path d="M262.127 28.0403C262.127 28.0403 254.763 20.4035 245.996 26.3389C237.216 32.2872 239.775 41.9111 247.697 45.3009C255.62 48.7036 264.958 46.1451 261.854 49.5478C258.737 52.9506 257.893 60.3016 262.698 61.7173C267.504 63.1329 266.659 68.5098 266.659 70.7697C266.659 73.0295 270.621 72.7568 271.465 70.7697C272.309 68.7826 274.582 63.4057 279.959 65.6785C285.336 67.9513 285.05 80.3935 283.076 83.5106C281.089 86.6276 279.115 86.3419 279.115 86.3419C279.115 86.3419 282.232 87.4718 280.244 91.1473C278.257 94.8228 278.257 94.8228 278.257 94.8228C278.257 94.8228 282.79 100.2 294.102 98.2256C305.428 96.2385 307.973 91.1473 306.272 86.9003C304.57 82.6534 300.609 82.0949 304.856 75.8608C309.103 69.6397 319.584 62.2757 318.727 48.1192C318.155 38.7811 296.089 30.0014 296.089 30.0014C296.089 30.0014 301.181 21.5075 289.583 16.1306C277.972 10.7537 264.672 16.9748 265.529 22.6374C266.374 28.326 262.127 28.0403 262.127 28.0403Z" fill="#263238" stroke="#263238" stroke-miterlimit="10" stroke-linecap="round" stroke-linejoin="round"/>
<path d="M250.165 58.7299C250.165 58.7299 246.568 57.7688 246.282 59.4702C245.996 61.1716 246.282 69.6655 246.282 69.6655C246.282 69.6655 248.542 71.0812 250.529 70.5097C252.516 69.9383 251.373 62.873 251.373 62.873" stroke="#263238" stroke-miterlimit="10" stroke-linecap="round" stroke-linejoin="round"/>
<path d="M272.608 68.2371L246.542 63.9252L246.568 62.3018L272.608 68.2371Z" fill="#263238" stroke="#263238" stroke-miterlimit="10" stroke-linecap="round" stroke-linejoin="round"/>
<path d="M309.973 93.7188C309.973 93.7188 295.544 104.187 285.634 114.954C275.725 125.707 263.841 137.591 263.27 141.28C262.698 144.955 263.841 150.618 269.491 144.682C275.153 138.734 285.621 130.812 293.544 130.253C301.466 129.682 313.636 133.656 319.87 134.5C326.091 135.344 330.065 137.046 332.325 133.656C334.585 130.253 328.65 122.616 328.65 118.655C328.65 114.694 329.494 107.901 326.662 103.083C323.831 98.2385 314.779 92.3032 309.973 93.7188Z" fill="#757575" stroke="#263238" stroke-miterlimit="10" stroke-linecap="round" stroke-linejoin="round"/>
<path d="M328.468 107.732C328.468 107.732 326.831 113.187 325.195 115.655C323.558 118.109 300.349 122.759 300.349 122.759C300.349 122.759 319.467 121.668 323.013 121.668C326.559 121.668 330.663 124.941 330.663 124.941L328.753 119.759C328.741 119.746 329.559 110.2 328.468 107.732Z" fill="#263238" stroke="#263238" stroke-miterlimit="10" stroke-linecap="round" stroke-linejoin="round"/>
</svg>
