<svg width="2000" height="599" viewBox="0 0 2000 599" fill="none" xmlns="http://www.w3.org/2000/svg">
<g clip-path="url(#clip0_231_5)">
<rect width="2000" height="599" fill="black" fill-opacity="0.1"/>
<path d="M836.506 706.664C772.608 726.093 706.197 738.619 645.007 741.625C585.566 744.587 521.831 738.09 475.599 723.53C398.929 699.406 337.208 660.546 314.436 606.362L320.045 604.726C340.443 620.201 383.375 632.503 410.666 634.53C451.407 637.534 497.372 626.425 537.576 607.269C622.466 566.771 663.61 503.771 708.384 449.915C769.553 376.236 835.495 303.248 899.194 229.982C959.216 160.863 1019.24 91.7438 1079.19 22.5822C1160.37 -71.0832 1264.29 -150.95 1423.6 -198.292C1604.24 -251.97 1808.05 -241.67 1895.57 -163.003C1917.42 -143.368 1941.13 -120.569 1947.64 -94.4525C1947.71 -94.1922 1947.74 -93.9163 1947.82 -93.627L1947.9 -93.3667C1947.94 -93.0618 1948.02 -92.7725 1948.11 -92.4833C1948.24 -91.8313 1948.34 -91.1349 1948.47 -90.4829C1948.63 -89.7731 1948.73 -89.0477 1948.84 -88.2934C1948.63 -89.5535 1948.14 -90.8256 1947.37 -92.0747C1947.28 -92.1748 1947.26 -92.2616 1947.17 -92.3617C1947.08 -92.4603 1947.04 -92.576 1946.96 -92.6761C1946.87 -92.7763 1946.77 -92.9053 1946.74 -93.021C1937.78 -105.124 1903.69 -116.243 1887.38 -119.706C1859.33 -125.664 1824.54 -124.36 1790.31 -117.495C1712.79 -101.888 1655.15 -57.1514 1617.59 -12.6195C1580.32 31.5752 1538.73 74.8488 1501.19 118.902C1462.35 164.506 1422.89 209.788 1382.14 255.086C1358.3 281.559 1335.81 308.326 1312.52 334.892L1311.2 336.415L1184.84 480.249L1173.85 492.74C1120.88 552.995 1063.67 605.883 972.913 652.154C931.05 673.535 884.496 692.025 836.506 706.664Z" fill="white" fill-opacity="0.02"/>
<ellipse cx="163.5" cy="631.5" rx="217.5" ry="209.5" fill="white" fill-opacity="0.02"/>
<path d="M1728 -4L2000 229V-4H1728Z" fill="white" fill-opacity="0.02"/>
</g>
<defs>
<clipPath id="clip0_231_5">
<rect width="2000" height="599" fill="white"/>
</clipPath>
</defs>
</svg>
