<svg width="104" height="88" viewBox="0 0 104 88" fill="none" xmlns="http://www.w3.org/2000/svg">
<path d="M96.1998 7.79372C85.7569 -2.59791 68.7708 -2.59791 58.3279 7.79372L52.016 14.0747L45.704 7.79372C40.6478 2.76233 33.9393 1.09765e-06 26.7681 1.09765e-06C19.6299 1.09765e-06 12.8883 2.76233 7.83214 7.79372C-2.61071 18.1854 -2.61071 35.0882 7.83214 45.4469L16.2261 53.7997L49.6366 87.0463C50.2975 87.704 51.1237 88 51.9829 88C52.8421 88 53.6683 87.6712 54.3292 87.0463L96.1667 45.4141C101.223 40.3827 103.999 33.707 103.999 26.571C104.065 19.5336 101.256 12.8251 96.1998 7.79372ZM52.049 80.1076L23.2981 51.4978L29.8084 45.0194L38.698 53.8655C39.359 54.5232 40.1851 54.8191 41.0444 54.8191C41.9036 54.8191 42.7298 54.4903 43.3907 53.8655L58.5593 38.7713L68.5394 48.7025C69.1673 49.3274 69.9935 49.6562 70.8858 49.6562H82.6505L52.049 80.1076ZM91.5401 40.8102L89.2599 43.0792H72.2407L60.9056 31.7997C59.6168 30.5172 57.5348 30.5172 56.246 31.7997L41.0774 46.8939L32.1878 38.0478C30.8989 36.7653 28.817 36.7653 27.5281 38.0478L18.6385 46.861L12.5579 40.8102C4.69267 32.9836 4.69267 20.2571 12.5579 12.4305C16.3583 8.64873 21.4144 6.54409 26.8011 6.54409C32.1878 6.54409 37.244 8.61585 41.0444 12.4305L49.7027 21.0463C50.3306 21.6712 51.1567 22 52.049 22C52.9413 22 53.7674 21.6383 54.3953 21.0463L63.0536 12.4305C70.9188 4.60389 83.708 4.60389 91.5732 12.4305C95.3736 16.2123 97.4886 21.2436 97.4886 26.6039C97.4556 31.997 95.3406 37.0284 91.5401 40.8102Z" fill="#231F20"/>
</svg>
