<svg width="104" height="104" viewBox="0 0 104 104" fill="none" xmlns="http://www.w3.org/2000/svg">
<g clip-path="url(#clip0_30_52)">
<path d="M31.8105 44.0411V59.6411C31.8105 60.7899 32.7418 61.7211 33.8905 61.7211C35.0393 61.7211 35.9705 60.7899 35.9705 59.6411V44.0411C35.9705 42.8923 35.0393 41.9611 33.8905 41.9611C32.7418 41.9611 31.8105 42.8923 31.8105 44.0411ZM99.7225 64.7255V87.3674C99.7225 88.5161 100.654 89.4474 101.803 89.4474C102.951 89.4474 103.883 88.5161 103.883 87.3674V64.7255C103.883 63.5768 102.951 62.6455 101.803 62.6455C100.654 62.6455 99.7225 63.5768 99.7225 64.7255ZM56.3545 87.3676V64.9337C56.3545 63.785 55.4233 62.8537 54.2745 62.8537C53.1258 62.8537 52.1945 63.785 52.1945 64.9337V87.3676C52.1945 88.5164 53.1258 89.4476 54.2745 89.4476C55.4233 89.4476 56.3545 88.5164 56.3545 87.3676ZM60.4105 48.2843H96.8105C97.9593 48.2843 98.8905 47.3531 98.8905 46.2043C98.8905 45.0555 97.9593 44.1243 96.8105 44.1243H60.4105C59.2618 44.1243 58.3305 45.0555 58.3305 46.2043C58.3305 47.3531 59.2618 48.2843 60.4105 48.2843ZM83.2905 36.8443C85.0018 36.8443 86.4105 35.4355 86.4105 33.7243V32.6843C86.4105 30.9731 85.0018 29.5643 83.2905 29.5643H72.8905C71.1793 29.5643 69.7705 30.9731 69.7705 32.6843V33.7243C69.7705 35.4355 71.1793 36.8443 72.8905 36.8443H83.2905ZM83.2905 41.0043H72.8905C68.8818 41.0043 65.6105 37.7331 65.6105 33.7243V32.6843C65.6105 28.6755 68.8818 25.4043 72.8905 25.4043H83.2905C87.2993 25.4043 90.5705 28.6755 90.5705 32.6843V33.7243C90.5705 37.7331 87.2993 41.0043 83.2905 41.0043Z" fill="black" stroke="black" stroke-width="2"/>
<path d="M54.7792 83.2069H100.014C101.163 83.2069 102.094 82.2757 102.094 81.1269C102.094 79.9781 101.163 79.0469 100.014 79.0469H54.7792C53.6304 79.0469 52.6992 79.9781 52.6992 81.1269C52.6992 82.2757 53.6304 83.2069 54.7792 83.2069ZM20.2627 43.5204V86.5764C20.2627 87.7252 21.1939 88.6564 22.3427 88.6564C23.4915 88.6564 24.4227 87.7252 24.4227 86.5764V43.5204C24.4227 42.3717 23.4915 41.4404 22.3427 41.4404C21.1939 41.4404 20.2627 42.3717 20.2627 43.5204Z" fill="black" stroke="black" stroke-width="2"/>
<path d="M40.5429 85.2249V89.3849H4.14288V85.2249H40.5429ZM40.5429 89.3849H4.14288C1.36951 89.3849 1.36951 85.2249 4.14288 85.2249H40.5429C43.3162 85.2249 43.3162 89.3849 40.5429 89.3849ZM35.462 19.1279C35.424 18.9602 35.1237 18.7204 34.9509 18.7204H9.73511C9.56235 18.7204 9.26203 18.9602 9.22405 19.1281L4.27491 40.9702H40.4111L35.462 19.1279ZM44.584 40.5616C45.1315 42.9788 43.4134 45.1303 40.9351 45.1303H3.75095C1.27262 45.1303 -0.445312 42.9788 0.102008 40.5616L5.16673 18.2091C5.63412 16.1454 7.61926 14.5605 9.73501 14.5605H34.9508C37.0666 14.5605 39.0518 16.1454 39.5191 18.2089L44.5839 40.5616H44.584ZM89.7909 35.1567H91.9094C92.3792 35.1567 92.8506 35.2909 93.2013 35.5099C93.4406 35.6593 93.5453 35.791 93.5508 35.8164L99.6576 64.3747C99.674 64.4511 56.4673 64.4785 56.4673 64.4785C56.4507 64.4785 62.5521 35.8164 62.5521 35.8164C62.5575 35.7913 62.6623 35.6596 62.9018 35.5101C63.2527 35.291 63.7242 35.1568 64.1934 35.1568H66.2609V30.9968H64.1934C61.5334 30.9968 58.989 32.5858 58.4841 34.9464L52.3772 63.5048C51.8149 66.1425 53.7731 68.6385 56.4674 68.6385H99.6357C102.33 68.6385 104.29 66.1416 103.726 63.5046L97.6189 34.9465C97.1139 32.5857 94.5702 30.9968 91.9095 30.9968H89.791V35.1568L89.7909 35.1567Z" fill="black"/>
<path d="M40.5429 85.2249V89.3849M40.5429 85.2249H4.14288M40.5429 85.2249C43.3162 85.2249 43.3162 89.3849 40.5429 89.3849M40.5429 89.3849H4.14288M4.14288 89.3849V85.2249M4.14288 89.3849C1.36951 89.3849 1.36951 85.2249 4.14288 85.2249M35.462 19.1279C35.424 18.9602 35.1237 18.7204 34.9509 18.7204H9.73511C9.56235 18.7204 9.26203 18.9602 9.22405 19.1281L4.27491 40.9702H40.4111L35.462 19.1279ZM44.584 40.5616C45.1315 42.9788 43.4134 45.1303 40.9351 45.1303H3.75095C1.27262 45.1303 -0.445312 42.9788 0.102008 40.5616L5.16673 18.2091C5.63412 16.1454 7.61926 14.5605 9.73501 14.5605H34.9508C37.0666 14.5605 39.0518 16.1454 39.5191 18.2089L44.5839 40.5616H44.584ZM89.7909 35.1567H91.9094C92.3792 35.1567 92.8506 35.2909 93.2013 35.5099C93.4406 35.6593 93.5453 35.791 93.5508 35.8164L99.6576 64.3747C99.674 64.4511 56.4673 64.4785 56.4673 64.4785C56.4507 64.4785 62.5521 35.8164 62.5521 35.8164C62.5575 35.7913 62.6623 35.6596 62.9018 35.5101C63.2527 35.291 63.7242 35.1568 64.1934 35.1568H66.2609V30.9968H64.1934C61.5334 30.9968 58.989 32.5858 58.4841 34.9464L52.3772 63.5048C51.8149 66.1425 53.7731 68.6385 56.4674 68.6385H99.6357C102.33 68.6385 104.29 66.1416 103.726 63.5046L97.6189 34.9465C97.1139 32.5857 94.5702 30.9968 91.9095 30.9968H89.791V35.1568L89.7909 35.1567Z" stroke="black" stroke-width="2"/>
</g>
<defs>
<clipPath id="clip0_30_52">
<rect width="104" height="104" fill="white"/>
</clipPath>
</defs>
</svg>
