<svg width="102" height="102" viewBox="0 0 102 102" fill="none" xmlns="http://www.w3.org/2000/svg">
<path d="M22.6119 47.2646H13.6471C12.4119 47.2646 11.4062 48.2703 11.4062 49.5055V55.482C11.4062 56.7172 12.4119 57.7228 13.6471 57.7228H22.6119C23.8471 57.7228 24.8527 56.7172 24.8527 55.482V49.5055C24.8527 48.2703 23.8471 47.2646 22.6119 47.2646ZM17.3812 56.2295H13.6471C13.449 56.2291 13.2591 56.1502 13.119 56.0101C12.9789 55.87 12.9 55.6801 12.8996 55.482V49.5055C12.9 49.3073 12.9789 49.1175 13.119 48.9774C13.2591 48.8373 13.449 48.7584 13.6471 48.758H17.3828L17.3812 56.2295ZM23.3578 55.4836C23.3574 55.6817 23.2785 55.8716 23.1384 56.0117C22.9983 56.1518 22.8084 56.2307 22.6103 56.2311H18.8746V48.7596H22.6103C22.8084 48.76 22.9983 48.8389 23.1384 48.979C23.2785 49.1191 23.3574 49.3089 23.3578 49.5071V55.4836Z" fill="black"/>
<path d="M22.6119 77.8945H13.6471C12.4119 77.8945 11.4062 78.9002 11.4062 80.1353V86.1119C11.4062 87.3471 12.4119 88.3527 13.6471 88.3527H22.6119C23.8471 88.3527 24.8527 87.3471 24.8527 86.1119V80.1353C24.8527 78.9002 23.8471 77.8945 22.6119 77.8945ZM17.3812 86.8594H13.6471C13.449 86.859 13.2591 86.7801 13.119 86.64C12.9789 86.4999 12.9 86.31 12.8996 86.1119V80.1353C12.9 79.9372 12.9789 79.7474 13.119 79.6073C13.2591 79.4672 13.449 79.3883 13.6471 79.3879H17.3828L17.3812 86.8594ZM23.3578 86.1119C23.3574 86.31 23.2785 86.4999 23.1384 86.64C22.9983 86.7801 22.8084 86.859 22.6103 86.8594H18.8746V79.3879H22.6103C22.8084 79.3883 22.9983 79.4672 23.1384 79.6073C23.2785 79.7474 23.3574 79.9372 23.3578 80.1353V86.1119Z" fill="black"/>
<path d="M77.1475 49.5064V55.483C77.1475 56.7182 78.1531 57.7238 79.3883 57.7238H88.3531C89.5883 57.7238 90.5939 56.7182 90.5939 55.483V49.5064C90.5939 48.2713 89.5883 47.2656 88.3531 47.2656H79.3883C78.7941 47.266 78.2244 47.5023 77.8042 47.9224C77.3841 48.3426 77.1479 48.9123 77.1475 49.5064ZM84.619 48.759H88.3547C88.5528 48.7594 88.7427 48.8383 88.8828 48.9784C89.0229 49.1184 89.1018 49.3083 89.1022 49.5064V55.483C89.1018 55.6811 89.0229 55.871 88.8828 56.0111C88.7427 56.1512 88.5528 56.2301 88.3547 56.2305H84.619V48.759ZM83.124 56.2289H79.3883C79.1902 56.2285 79.0003 56.1496 78.8602 56.0095C78.7201 55.8694 78.6412 55.6795 78.6408 55.4814V49.5048C78.6412 49.3067 78.7201 49.1169 78.8602 48.9768C79.0003 48.8367 79.1902 48.7578 79.3883 48.7574H83.124V56.2289Z" fill="black"/>
<path d="M88.3541 77.8945H79.3892C78.1541 77.8945 77.1484 78.9002 77.1484 80.1353V86.1119C77.1484 87.3471 78.1541 88.3527 79.3892 88.3527H88.3541C89.5892 88.3527 90.5949 87.3471 90.5949 86.1119V80.1353C90.5949 78.9002 89.5892 77.8945 88.3541 77.8945ZM83.1234 86.8594H79.3877C79.1895 86.859 78.9997 86.7801 78.8596 86.64C78.7195 86.4999 78.6406 86.31 78.6402 86.1119V80.1353C78.6406 79.9372 78.7195 79.7474 78.8596 79.6073C78.9997 79.4672 79.1895 79.3883 79.3877 79.3879H83.1234V86.8594ZM89.1 86.1119C89.0995 86.31 89.0207 86.4999 88.8806 86.64C88.7405 86.7801 88.5506 86.859 88.3525 86.8594H84.6167V79.3879H88.3525C88.5506 79.3883 88.7405 79.4672 88.8806 79.6073C89.0207 79.7474 89.0995 79.9372 89.1 80.1353V86.1119Z" fill="black"/>
<path d="M61.4596 42.035C61.4596 40.6614 61.1891 39.3012 60.6634 38.0322C60.1377 36.7632 59.3673 35.6101 58.396 34.6388C57.4247 33.6675 56.2716 32.8971 55.0026 32.3714C53.7336 31.8457 52.3734 31.5752 50.9998 31.5752C49.6262 31.5752 48.2661 31.8457 46.997 32.3714C45.728 32.8971 44.5749 33.6675 43.6036 34.6388C42.6324 35.6101 41.8619 36.7632 41.3362 38.0322C40.8106 39.3012 40.54 40.6614 40.54 42.035C40.54 43.4086 40.8106 44.7687 41.3362 46.0378C41.8619 47.3068 42.6324 48.4599 43.6036 49.4312C44.5749 50.4024 45.728 51.1729 46.997 51.6986C48.2661 52.2242 49.6262 52.4948 50.9998 52.4948C52.3734 52.4948 53.7336 52.2242 55.0026 51.6986C56.2716 51.1729 57.4247 50.4024 58.396 49.4312C59.3673 48.4599 60.1377 47.3068 60.6634 46.0378C61.1891 44.7687 61.4596 43.4086 61.4596 42.035ZM43.5299 42.035C43.5301 41.0536 43.7236 40.0819 44.0994 39.1753C44.4751 38.2687 45.0258 37.445 45.7199 36.7512C46.4139 36.0574 47.2379 35.5071 48.1447 35.1317C49.0514 34.7564 50.0232 34.5633 51.0046 34.5635C51.986 34.5637 52.9577 34.7572 53.8643 35.1329C54.7709 35.5087 55.5946 36.0593 56.2884 36.7534C56.9822 37.4475 57.5325 38.2715 57.9079 39.1782C58.2832 40.085 58.4763 41.0568 58.4761 42.0382C58.4757 44.0202 57.6879 45.9208 56.2862 47.322C54.8844 48.7232 52.9834 49.5101 51.0014 49.5097C49.0194 49.5092 47.1188 48.7215 45.7176 47.3197C44.3164 45.9179 43.5295 44.017 43.5299 42.035Z" fill="black"/>
<path d="M52.4954 43.5301V37.5535C52.4954 36.7312 51.8228 36.0586 51.0004 36.0586C50.1781 36.0586 49.5055 36.7312 49.5055 37.5535V42.0368H48.0106C47.1882 42.0368 46.5156 42.7093 46.5156 43.5317C46.5156 44.3541 47.1882 45.0266 48.0106 45.0266H51.0004C51.3965 45.0245 51.7758 44.8661 52.0558 44.5859C52.3357 44.3056 52.4937 43.9262 52.4954 43.5301Z" fill="black"/>
<path d="M22.6119 62.9531H13.6471C12.4119 62.9531 11.4062 63.9588 11.4062 65.1939V71.1705C11.4062 72.4057 12.4119 73.4113 13.6471 73.4113H22.6119C23.8471 73.4113 24.8527 72.4057 24.8527 71.1705V65.1939C24.8527 63.9588 23.8471 62.9531 22.6119 62.9531ZM17.3812 71.918H13.6471C13.449 71.9175 13.2591 71.8387 13.119 71.6986C12.9789 71.5585 12.9 71.3686 12.8996 71.1705V65.1939C12.9 64.9958 12.9789 64.8059 13.119 64.6659C13.2591 64.5258 13.449 64.4469 13.6471 64.4465H17.3828L17.3812 71.918ZM23.3578 71.1705C23.3574 71.3686 23.2785 71.5585 23.1384 71.6986C22.9983 71.8387 22.8084 71.9175 22.6103 71.918H18.8746V64.4465H22.6103C22.8084 64.4469 22.9983 64.5258 23.1384 64.6659C23.2785 64.8059 23.3574 64.9958 23.3578 65.1939V71.1705Z" fill="black"/>
<path d="M88.3541 62.9531H79.3892C78.1541 62.9531 77.1484 63.9588 77.1484 65.1939V71.1705C77.1484 72.4057 78.1541 73.4113 79.3892 73.4113H88.3541C89.5892 73.4113 90.5949 72.4057 90.5949 71.1705V65.1939C90.5949 63.9588 89.5892 62.9531 88.3541 62.9531ZM83.1234 71.918H79.3877C79.1895 71.9175 78.9997 71.8387 78.8596 71.6986C78.7195 71.5585 78.6406 71.3686 78.6402 71.1705V65.1939C78.6406 64.9958 78.7195 64.8059 78.8596 64.6659C78.9997 64.5258 79.1895 64.4469 79.3877 64.4465H83.1234V71.918ZM89.1 71.1705C89.0995 71.3686 89.0207 71.5585 88.8806 71.6986C88.7405 71.8387 88.5506 71.9175 88.3525 71.918H84.6167V64.4465H88.3525C88.5506 64.4469 88.7405 64.5258 88.8806 64.6659C89.0207 64.8059 89.0995 64.9958 89.1 65.1939V71.1705Z" fill="black"/>
<path d="M97.3192 92.8359H95.8242V45.0234H96.8347C98.5161 45.0234 99.2731 43.8202 98.5224 42.3507L93.6185 32.7548C92.8662 31.2853 90.8756 30.082 89.1958 30.082H63.9205L52.4933 20.8319V17.1822C58.4699 21.9507 64.4465 6.90891 70.423 11.679C64.4465 3.24169 58.4699 14.6131 52.4933 6.17578V4.68244C52.4949 3.86006 51.8224 3.1875 51 3.1875C50.1776 3.1875 49.5051 3.86006 49.5051 4.68244V20.8335L38.0779 30.0836H12.8058C11.1244 30.0836 9.13378 31.2869 8.38313 32.7563L3.47916 42.3523C2.72691 43.8217 3.48553 45.025 5.16694 45.025H6.17737V92.8375H4.68244C4.28649 92.8384 3.90698 92.9959 3.62685 93.2758C3.34672 93.5556 3.18876 93.9349 3.1875 94.3309V97.3192C3.18876 97.7151 3.34672 98.0944 3.62685 98.3743C3.90698 98.6541 4.28649 98.8117 4.68244 98.8125H97.3192C97.7148 98.8112 98.0939 98.6535 98.3737 98.3737C98.6535 98.0939 98.8112 97.7148 98.8125 97.3192V94.3309C98.8117 93.9349 98.6541 93.5554 98.3743 93.2753C98.0944 92.9952 97.7151 92.8372 97.3192 92.8359ZM27.0938 92.8359H9.16406V45.0234H23.4074C23.4361 45.2832 23.4871 45.5302 23.5668 45.755C23.9572 46.8467 25.092 48.0117 27.0953 48.0117L27.0938 92.8359ZM66.9375 96.9701H35.0625V94.5795H66.9375V96.9701ZM42.0352 92.8359V74.9062H50.2525V92.8359H42.0352ZM51.7475 92.8359V74.9062H59.9648V92.8359H51.7475ZM71.918 92.8359H62.9531V74.9062H65.9414V71.9084C65.9414 71.9084 55.6729 65.7039 52.4153 63.385C51.9975 63.1029 51.5049 62.9522 51.0008 62.9522C50.4967 62.9522 50.0041 63.1029 49.5863 63.385C46.3287 65.7039 36.0602 71.9084 36.0602 71.9084V74.9062H39.0469V92.8359H30.082V45.0234H27.0938C26.2714 45.0234 26.12 44.5947 26.7527 44.0736L49.8461 25.0538C50.1633 24.794 50.5824 24.6633 51 24.6633C51.4176 24.6633 51.8351 24.794 52.1539 25.0538L75.2473 44.0736C75.88 44.5947 75.7286 45.0234 74.9062 45.0234H71.918V92.8359ZM92.8359 92.8359H74.9062V48.0117C76.9096 48.0117 78.0443 46.8467 78.4348 45.755C78.5145 45.5302 78.5655 45.2832 78.5942 45.0234H92.8375L92.8359 92.8359Z" fill="black"/>
<path d="M46.6104 83.124H48.7587V84.2094H46.6104V83.124Z" fill="black"/>
<path d="M53.2412 83.124H55.3896V84.2094H53.2412V83.124Z" fill="black"/>
</svg>
