<svg width="92" height="80" viewBox="0 0 92 80" fill="none" xmlns="http://www.w3.org/2000/svg">
<path d="M13.5 6.25V73.625H52.5V6.25H13.5ZM10.25 0.125H55.75C56.612 0.125 57.4386 0.447655 58.0481 1.02199C58.6576 1.59632 59 2.37527 59 3.1875V76.6875C59 77.4997 58.6576 78.2787 58.0481 78.853C57.4386 79.4273 56.612 79.75 55.75 79.75H10.25C9.38805 79.75 8.5614 79.4273 7.9519 78.853C7.34241 78.2787 7 77.4997 7 76.6875V3.1875C7 2.37527 7.34241 1.59632 7.9519 1.02199C8.5614 0.447655 9.38805 0.125 10.25 0.125Z" fill="black"/>
<path d="M20 18.5H46V24.625H20V18.5ZM20 36.875H46V43H20V36.875ZM20 55.25H46V61.375H20V55.25ZM59 43H72V49.125H59V43ZM59 55.25H72V61.375H59V55.25ZM0.5 73.625H91.5V79.75H0.5V73.625Z" fill="black"/>
<path d="M59 30.75V73.625H78.5V30.75H59ZM55.75 24.625H81.75C82.612 24.625 83.4386 24.9477 84.0481 25.522C84.6576 26.0963 85 26.8753 85 27.6875V76.6875C85 77.4997 84.6576 78.2787 84.0481 78.853C83.4386 79.4273 82.612 79.75 81.75 79.75H55.75C54.888 79.75 54.0614 79.4273 53.4519 78.853C52.8424 78.2787 52.5 77.4997 52.5 76.6875V27.6875C52.5 26.8753 52.8424 26.0963 53.4519 25.522C54.0614 24.9477 54.888 24.625 55.75 24.625Z" fill="black"/>
</svg>
