<svg width="42" height="42" viewBox="0 0 42 42" fill="none" xmlns="http://www.w3.org/2000/svg">
<path fill-rule="evenodd" clip-rule="evenodd" d="M14.4838 16.6237V13.4597C14.4838 10.83 16.6156 8.69824 19.2453 8.69824H20.093C22.7227 8.69824 24.8545 10.83 24.8545 13.4597V16.6237H25.7658C26.6137 16.6237 27.301 17.311 27.301 18.1588V18.4795C27.3021 18.4959 27.3026 18.5124 27.3026 18.5291V19.7852C27.3026 20.1994 26.9668 20.5352 26.5526 20.5352C26.1384 20.5352 25.8026 20.1994 25.8026 19.7852V19.7524H25.801V18.1588C25.801 18.1512 25.7997 18.1477 25.7988 18.1456C25.7975 18.1425 25.795 18.1383 25.7907 18.134C25.7864 18.1297 25.7822 18.1272 25.7791 18.1258C25.7769 18.1249 25.7735 18.1237 25.7658 18.1237H13.6041C13.5965 18.1237 13.593 18.1249 13.5909 18.1258C13.5878 18.1272 13.5835 18.1297 13.5793 18.134C13.575 18.1383 13.5724 18.1425 13.5711 18.1456C13.5702 18.1477 13.569 18.1512 13.569 18.1588V26.977C13.569 26.9846 13.5702 26.9881 13.5711 26.9902C13.5724 26.9933 13.575 26.9975 13.5793 27.0018C13.5835 27.0061 13.5878 27.0086 13.5909 27.01C13.593 27.0109 13.5965 27.0121 13.6041 27.0121H16.8882C16.9114 27.0099 16.9349 27.0088 16.9587 27.0088H18.2148C18.629 27.0088 18.9648 27.3446 18.9648 27.7588C18.9648 28.173 18.629 28.5088 18.2148 28.5088H17.8634V28.5121H13.6041C12.7563 28.5121 12.069 27.8248 12.069 26.977V18.1588C12.069 17.311 12.7563 16.6237 13.6041 16.6237H14.4838ZM19.2453 10.1982H20.093C21.8943 10.1982 23.3545 11.6585 23.3545 13.4597V16.6237H15.9838V13.4597C15.9838 11.6585 17.444 10.1982 19.2453 10.1982Z" fill="#ED0100"/>
<path d="M19.6849 19.2173C20.0992 19.2173 20.4349 19.5531 20.4349 19.9673V23.4967C20.4349 23.9109 20.0992 24.2467 19.6849 24.2467C19.2707 24.2467 18.9349 23.9109 18.9349 23.4967V19.9673C18.9349 19.5531 19.2707 19.2173 19.6849 19.2173Z" fill="#ED0100"/>
<path d="M27.4762 22.7859C27.8688 22.918 28.08 23.3433 27.948 23.7359L26.1984 28.9371C26.0664 29.3297 25.6411 29.5409 25.2485 29.4089C24.8559 29.2768 24.6447 28.8515 24.7767 28.4589L26.5263 23.2577C26.6583 22.8651 27.0836 22.6539 27.4762 22.7859Z" fill="#ED0100"/>
<path d="M24.0763 23.4023C24.3678 23.6965 24.3657 24.1714 24.0715 24.463L22.4221 26.0974L24.0715 27.7318C24.3657 28.0234 24.3678 28.4983 24.0763 28.7925C23.7847 29.0867 23.3099 29.0889 23.0156 28.7973L20.8287 26.6301C20.6866 26.4893 20.6066 26.2975 20.6066 26.0974C20.6066 25.8973 20.6866 25.7055 20.8287 25.5647L23.0156 23.3975C23.3099 23.1059 23.7847 23.1081 24.0763 23.4023Z" fill="#ED0100"/>
<path d="M28.5417 23.4023C28.8333 23.1081 29.3082 23.1059 29.6024 23.3975L31.7893 25.5647C31.9314 25.7055 32.0114 25.8973 32.0114 26.0974C32.0114 26.2975 31.9314 26.4893 31.7893 26.6301L29.6024 28.7973C29.3082 29.0889 28.8333 29.0867 28.5417 28.7925C28.2502 28.4983 28.2523 28.0234 28.5465 27.7318L30.1959 26.0974L28.5465 24.463C28.2523 24.1714 28.2502 23.6965 28.5417 23.4023Z" fill="#ED0100"/>
<path fill-rule="evenodd" clip-rule="evenodd" d="M35.6778 23.414C34.9987 32.1988 21 39.2146 21 39.2146C21 39.2146 7.00128 32.1988 6.32216 23.414H6.29663V7.70204L21 2.7854L35.7033 7.70204V23.414H35.6778ZM7.63497 23.3125L7.61335 23.0329V8.65013L21 4.17378L34.3866 8.65013V23.0329L34.365 23.3125C34.2209 25.1765 33.3613 27.0283 32.0413 28.8032C30.7246 30.5736 29.0042 32.194 27.2644 33.5782C25.5295 34.9586 23.8091 36.0777 22.5197 36.8525C21.8914 37.23 21.3685 37.524 21 37.725C20.6315 37.524 20.1085 37.23 19.4803 36.8525C18.1908 36.0777 16.4704 34.9586 14.7356 33.5782C12.9958 32.194 11.2753 30.5736 9.95864 28.8032C8.63869 27.0283 7.77907 25.1765 7.63497 23.3125Z" fill="#ED0100"/>
<path fill-rule="evenodd" clip-rule="evenodd" d="M14.4838 16.6237V13.4597C14.4838 10.83 16.6156 8.69824 19.2453 8.69824H20.093C22.7227 8.69824 24.8545 10.83 24.8545 13.4597V16.6237H25.7658C26.6137 16.6237 27.301 17.311 27.301 18.1588V18.4795C27.3021 18.4959 27.3026 18.5124 27.3026 18.5291V19.7852C27.3026 20.1994 26.9668 20.5352 26.5526 20.5352C26.1384 20.5352 25.8026 20.1994 25.8026 19.7852V19.7524H25.801V18.1588C25.801 18.1512 25.7997 18.1477 25.7988 18.1456C25.7975 18.1425 25.795 18.1383 25.7907 18.134C25.7864 18.1297 25.7822 18.1272 25.7791 18.1258C25.7769 18.1249 25.7735 18.1237 25.7658 18.1237H13.6041C13.5965 18.1237 13.593 18.1249 13.5909 18.1258C13.5878 18.1272 13.5835 18.1297 13.5793 18.134C13.575 18.1383 13.5724 18.1425 13.5711 18.1456C13.5702 18.1477 13.569 18.1512 13.569 18.1588V26.977C13.569 26.9846 13.5702 26.9881 13.5711 26.9902C13.5724 26.9933 13.575 26.9975 13.5793 27.0018C13.5835 27.0061 13.5878 27.0086 13.5909 27.01C13.593 27.0109 13.5965 27.0121 13.6041 27.0121H16.8882C16.9114 27.0099 16.9349 27.0088 16.9587 27.0088H18.2148C18.629 27.0088 18.9648 27.3446 18.9648 27.7588C18.9648 28.173 18.629 28.5088 18.2148 28.5088H17.8634V28.5121H13.6041C12.7563 28.5121 12.069 27.8248 12.069 26.977V18.1588C12.069 17.311 12.7563 16.6237 13.6041 16.6237H14.4838ZM19.2453 10.1982H20.093C21.8943 10.1982 23.3545 11.6585 23.3545 13.4597V16.6237H15.9838V13.4597C15.9838 11.6585 17.444 10.1982 19.2453 10.1982Z" stroke="#ED0100" stroke-width="0.2"/>
<path d="M19.6849 19.2173C20.0992 19.2173 20.4349 19.5531 20.4349 19.9673V23.4967C20.4349 23.9109 20.0992 24.2467 19.6849 24.2467C19.2707 24.2467 18.9349 23.9109 18.9349 23.4967V19.9673C18.9349 19.5531 19.2707 19.2173 19.6849 19.2173Z" stroke="#ED0100" stroke-width="0.2"/>
<path d="M27.4762 22.7859C27.8688 22.918 28.08 23.3433 27.948 23.7359L26.1984 28.9371C26.0664 29.3297 25.6411 29.5409 25.2485 29.4089C24.8559 29.2768 24.6447 28.8515 24.7767 28.4589L26.5263 23.2577C26.6583 22.8651 27.0836 22.6539 27.4762 22.7859Z" stroke="#ED0100" stroke-width="0.2"/>
<path d="M24.0763 23.4023C24.3678 23.6965 24.3657 24.1714 24.0715 24.463L22.4221 26.0974L24.0715 27.7318C24.3657 28.0234 24.3678 28.4983 24.0763 28.7925C23.7847 29.0867 23.3099 29.0889 23.0156 28.7973L20.8287 26.6301C20.6866 26.4893 20.6066 26.2975 20.6066 26.0974C20.6066 25.8973 20.6866 25.7055 20.8287 25.5647L23.0156 23.3975C23.3099 23.1059 23.7847 23.1081 24.0763 23.4023Z" stroke="#ED0100" stroke-width="0.2"/>
<path d="M28.5417 23.4023C28.8333 23.1081 29.3082 23.1059 29.6024 23.3975L31.7893 25.5647C31.9314 25.7055 32.0114 25.8973 32.0114 26.0974C32.0114 26.2975 31.9314 26.4893 31.7893 26.6301L29.6024 28.7973C29.3082 29.0889 28.8333 29.0867 28.5417 28.7925C28.2502 28.4983 28.2523 28.0234 28.5465 27.7318L30.1959 26.0974L28.5465 24.463C28.2523 24.1714 28.2502 23.6965 28.5417 23.4023Z" stroke="#ED0100" stroke-width="0.2"/>
<path fill-rule="evenodd" clip-rule="evenodd" d="M35.6778 23.414C34.9987 32.1988 21 39.2146 21 39.2146C21 39.2146 7.00128 32.1988 6.32216 23.414H6.29663V7.70204L21 2.7854L35.7033 7.70204V23.414H35.6778ZM7.63497 23.3125L7.61335 23.0329V8.65013L21 4.17378L34.3866 8.65013V23.0329L34.365 23.3125C34.2209 25.1765 33.3613 27.0283 32.0413 28.8032C30.7246 30.5736 29.0042 32.194 27.2644 33.5782C25.5295 34.9586 23.8091 36.0777 22.5197 36.8525C21.8914 37.23 21.3685 37.524 21 37.725C20.6315 37.524 20.1085 37.23 19.4803 36.8525C18.1908 36.0777 16.4704 34.9586 14.7356 33.5782C12.9958 32.194 11.2753 30.5736 9.95864 28.8032C8.63869 27.0283 7.77907 25.1765 7.63497 23.3125Z" stroke="#ED0100" stroke-width="0.2"/>
</svg>
