<svg width="42" height="42" viewBox="0 0 42 42" fill="none" xmlns="http://www.w3.org/2000/svg">
<path d="M32.5353 27.9998C35.4657 27.6316 37.7329 25.1303 37.7329 22.0997C37.7329 19.0416 35.4233 16.5209 32.4542 16.1899L31.4577 16.0788L31.1793 15.1156C30.5844 13.0573 28.6847 11.5545 26.4379 11.5545C26.1097 11.5545 25.7904 11.5863 25.4825 11.6467L24.4397 11.8509L23.9012 10.9349C22.5858 8.69808 20.1578 7.20215 17.3819 7.20215C13.2087 7.20215 9.8256 10.5852 9.8256 14.7585C9.8256 15.0689 9.84424 15.3743 9.88032 15.6737L10.0483 17.0682L8.66783 17.3274C6.16248 17.7977 4.26697 19.9993 4.26697 22.6405C4.26697 25.6011 6.64707 28.0061 9.59787 28.0461L9.64175 28.0467H9.93921C9.94786 28.0464 9.95655 28.0464 9.96528 28.0464C10.3795 28.0464 10.7153 28.3822 10.7153 28.7964C10.7153 29.2106 10.3795 29.5464 9.96528 29.5464C9.95655 29.5464 9.94786 29.5462 9.93921 29.5459L9.57753 29.5467C5.80743 29.4956 2.76697 26.4227 2.76697 22.6405C2.76697 19.2644 5.1895 16.4541 8.39109 15.8531C8.34785 15.4943 8.3256 15.129 8.3256 14.7585C8.3256 9.7568 12.3803 5.70215 17.3819 5.70215C20.711 5.70215 23.6205 7.49842 25.1942 10.1746C25.5966 10.0958 26.0124 10.0545 26.4379 10.0545C29.3706 10.0545 31.845 12.0163 32.6204 14.6992C36.3404 15.1139 39.2329 18.269 39.2329 22.0997C39.2329 25.8884 36.4035 29.0163 32.7424 29.4857L32.7428 29.4839C32.576 29.5129 32.3984 29.4858 32.2403 29.3945C31.882 29.1876 31.7593 28.7295 31.9661 28.3712C32.0905 28.1558 32.3056 28.0245 32.5353 27.9998Z" fill="#ED0100"/>
<path d="M27.1586 31.8999V30.1749C27.1586 29.7606 26.8228 29.4249 26.4086 29.4249C25.9944 29.4249 25.6586 29.7606 25.6586 30.1749V33.8301C25.6586 34.0291 25.7376 34.2199 25.8783 34.3605C26.019 34.5012 26.2098 34.5802 26.4087 34.5801L30.0634 34.5796C30.4776 34.5795 30.8134 34.2437 30.8133 33.8295C30.8133 33.4153 30.4774 33.0795 30.0632 33.0796L28.143 33.0799C29.3456 31.5814 30.066 29.6775 30.066 27.6061C30.066 25.1215 29.0294 22.8776 27.3672 21.2856C25.7962 19.781 23.663 18.8554 21.3152 18.8554C20.121 18.8554 18.9809 19.095 17.9418 19.5295C17.5597 19.6893 17.3794 20.1286 17.5392 20.5107C17.699 20.8929 18.1383 21.0732 18.5204 20.9134C19.3795 20.5542 20.3232 20.3554 21.3152 20.3554C23.2611 20.3554 25.0267 21.121 26.3297 22.3689C27.7087 23.6897 28.566 25.5472 28.566 27.6061C28.566 29.2133 28.0437 30.6977 27.1586 31.8999Z" fill="#ED0100"/>
<path d="M16.5238 21.2369C16.6645 21.3776 16.7435 21.5683 16.7435 21.7673V25.4226C16.7435 25.8368 16.4077 26.1726 15.9935 26.1726C15.5793 26.1726 15.2435 25.8368 15.2435 25.4226V23.7442C14.561 24.8498 14.1675 26.1522 14.1675 27.5471C14.1675 29.606 15.0248 31.4635 16.4038 32.7843C17.7068 34.0322 19.4724 34.7978 21.4183 34.7978C22.4103 34.7978 23.3539 34.599 24.2131 34.2398C24.5952 34.08 25.0345 34.2603 25.1943 34.6425C25.3541 35.0246 25.1738 35.4639 24.7917 35.6237C23.7526 36.0582 22.6125 36.2978 21.4183 36.2978C19.0705 36.2978 16.9373 35.3722 15.3663 33.8676C13.7041 32.2756 12.6675 30.0317 12.6675 27.5471C12.6675 25.6753 13.2558 23.9402 14.2566 22.5175L12.3389 22.5178C11.9247 22.5179 11.5888 22.1822 11.5888 21.7679C11.5887 21.3537 11.9244 21.0179 12.3387 21.0178L15.9934 21.0173C16.1923 21.0172 16.3831 21.0962 16.5238 21.2369Z" fill="#ED0100"/>
</svg>
