<svg width="34" height="38" viewBox="0 0 34 38" fill="none" xmlns="http://www.w3.org/2000/svg">
<path fill-rule="evenodd" clip-rule="evenodd" d="M19.9752 3.9328C19.9752 5.57662 18.6426 6.90919 16.9988 6.90919C16.05 6.90919 15.2049 6.46525 14.6599 5.77376L6.60133 10.4264C6.43057 9.94116 6.13763 9.51352 5.75943 9.1804L14.0573 4.38964C14.0343 4.24072 14.0224 4.08815 14.0224 3.9328C14.0224 2.28899 15.355 0.956421 16.9988 0.956421C18.6426 0.956421 19.9752 2.28899 19.9752 3.9328ZM18.4752 3.9328C18.4752 4.74819 17.8142 5.40919 16.9988 5.40919C16.1834 5.40919 15.5224 4.74819 15.5224 3.9328C15.5224 3.11742 16.1834 2.45642 16.9988 2.45642C17.8142 2.45642 18.4752 3.11742 18.4752 3.9328Z" fill="#ED0100"/>
<path fill-rule="evenodd" clip-rule="evenodd" d="M19.9404 4.38961C19.8607 4.90698 19.6478 5.3804 19.3378 5.77371L27.3985 10.4276C27.29 10.7365 27.2309 11.0688 27.2309 11.4148C27.2309 12.8584 28.2587 14.062 29.6225 14.3337V23.6661C29.8116 23.6284 30.0072 23.6087 30.2074 23.6087C30.5267 23.6087 30.8342 23.6589 31.1225 23.752V14.2478C32.3185 13.8618 33.1837 12.7393 33.1837 11.4148C33.1837 9.77099 31.8511 8.43841 30.2073 8.43841C29.4531 8.43841 28.7644 8.71892 28.2399 9.18131L19.9404 4.38961ZM30.2073 12.8912C31.0227 12.8912 31.6837 12.2302 31.6837 11.4148C31.6837 10.5994 31.0227 9.93841 30.2073 9.93841C29.3919 9.93841 28.7309 10.5994 28.7309 11.4148C28.7309 12.2302 29.3919 12.8912 30.2073 12.8912Z" fill="#ED0100"/>
<path fill-rule="evenodd" clip-rule="evenodd" d="M28.2398 28.8185L19.9405 33.6101C19.8608 33.0927 19.6478 32.6193 19.3378 32.226L27.3985 27.5721C27.29 27.2633 27.231 26.9311 27.231 26.5852C27.231 24.9413 28.5636 23.6087 30.2074 23.6087C31.8513 23.6087 33.1837 24.9413 33.1837 26.5852C33.1837 28.229 31.8512 29.5615 30.2073 29.5615C29.4531 29.5615 28.7643 29.281 28.2398 28.8185ZM31.6837 26.5852C31.6837 27.4005 31.0227 28.0615 30.2073 28.0615C29.392 28.0615 28.731 27.4005 28.731 26.5852C28.731 25.7698 29.392 25.1088 30.2073 25.1088C31.0227 25.1088 31.6837 25.7698 31.6837 26.5852Z" fill="#ED0100"/>
<path fill-rule="evenodd" clip-rule="evenodd" d="M14.0573 33.6101L5.7594 28.8193C5.23498 29.2813 4.5466 29.5615 3.79276 29.5615C2.14895 29.5615 0.816376 28.229 0.816376 26.5852C0.816376 24.9413 2.14895 23.6088 3.79276 23.6088C5.43657 23.6088 6.76914 24.9413 6.76914 26.5852C6.76914 27.0265 6.67309 27.4455 6.50072 27.8222C6.53783 27.7411 6.57142 27.6581 6.60126 27.5733L14.66 32.226C15.205 31.5346 16.0501 31.0907 16.9988 31.0907C18.6426 31.0907 19.9752 32.4233 19.9752 34.0671C19.9752 35.7109 18.6426 37.0435 16.9988 37.0435C15.355 37.0435 14.0224 35.7109 14.0224 34.0671C14.0224 33.9117 14.0344 33.7591 14.0573 33.6101ZM16.9988 35.5435C17.8142 35.5435 18.4752 34.8825 18.4752 34.0671C18.4752 33.2517 17.8142 32.5907 16.9988 32.5907C16.1834 32.5907 15.5224 33.2517 15.5224 34.0671C15.5224 34.8825 16.1834 35.5435 16.9988 35.5435ZM3.79276 28.0615C4.60814 28.0615 5.26914 27.4005 5.26914 26.5852C5.26914 25.7698 4.60814 25.1088 3.79276 25.1088C2.97738 25.1088 2.31638 25.7698 2.31638 26.5852C2.31638 27.4005 2.97738 28.0615 3.79276 28.0615Z" fill="#ED0100"/>
<path fill-rule="evenodd" clip-rule="evenodd" d="M3.79276 23.6088C3.47256 23.6088 3.16428 23.6592 2.87525 23.7528V14.247C1.68047 13.8602 0.816475 12.7384 0.816475 11.4148C0.816475 9.77099 2.14905 8.43841 3.79286 8.43841C5.43667 8.43841 6.76924 9.77099 6.76924 11.4148C6.76924 12.8593 5.74023 14.0635 4.37525 14.3342V23.6656C4.18691 23.6283 3.99207 23.6088 3.79276 23.6088ZM5.26924 11.4148C5.26924 12.2302 4.60824 12.8912 3.79286 12.8912C2.97747 12.8912 2.31647 12.2302 2.31647 11.4148C2.31647 10.5994 2.97747 9.93841 3.79286 9.93841C4.60824 9.93841 5.26924 10.5994 5.26924 11.4148Z" fill="#ED0100"/>
<path d="M19.2623 15.0336V16.0778H20.7623V15.0336C20.7623 12.9551 19.0773 11.2701 16.9988 11.2701C14.9203 11.2701 13.2353 12.9551 13.2353 15.0336V16.0778H14.7353V15.0336C14.7353 13.7835 15.7487 12.7701 16.9988 12.7701C18.2489 12.7701 19.2623 13.7835 19.2623 15.0336Z" fill="#ED0100"/>
<path d="M17.7488 19.3128C17.7488 18.8986 17.413 18.5628 16.9988 18.5628C16.5846 18.5628 16.2488 18.8986 16.2488 19.3128V22.9005C16.2488 23.3147 16.5846 23.6505 16.9988 23.6505C17.413 23.6505 17.7488 23.3147 17.7488 22.9005V19.3128Z" fill="#ED0100"/>
<path fill-rule="evenodd" clip-rule="evenodd" d="M12.3536 16.0779C11.8013 16.0779 11.3536 16.5256 11.3536 17.0779V25.1139C11.3536 25.6662 11.8013 26.1139 12.3536 26.1139H21.6441C22.1964 26.1139 22.6441 25.6662 22.6441 25.1139V17.0779C22.6441 16.5256 22.1964 16.0779 21.6441 16.0779H12.3536ZM12.8536 17.5779V24.6139H21.1441V17.5779H12.8536Z" fill="#ED0100"/>
</svg>
