<svg width="36" height="32" viewBox="0 0 36 32" fill="none" xmlns="http://www.w3.org/2000/svg">
<path fill-rule="evenodd" clip-rule="evenodd" d="M23.174 9.18719L26.4028 6.31714C26.2518 5.99315 26.1675 5.63182 26.1675 5.25079C26.1675 3.85522 27.2988 2.72388 28.6944 2.72388C30.09 2.72388 31.2213 3.85522 31.2213 5.25079C31.2213 6.64637 30.09 7.77771 28.6944 7.77771C28.2259 7.77771 27.7871 7.65019 27.411 7.42797L24.0001 10.4598C24.0596 10.6748 24.0914 10.9014 24.0914 11.1353C24.0914 12.5309 22.9601 13.6622 21.5645 13.6622C20.1689 13.6622 19.0376 12.5309 19.0376 11.1353C19.0376 11.0258 19.0446 10.9178 19.0581 10.8119L16.2835 9.50068C15.8222 9.99558 15.1645 10.3051 14.4346 10.3051C13.6241 10.3051 12.9027 9.92345 12.4403 9.33011L9.76524 10.8468C9.64672 10.3403 9.37587 9.8925 9.00366 9.55425L11.9109 7.90597C11.9088 7.86362 11.9077 7.82101 11.9077 7.77814C11.9077 6.38256 13.0391 5.25122 14.4346 5.25122C15.8302 5.25122 16.9615 6.38256 16.9615 7.77814C16.9615 7.90422 16.9523 8.02814 16.9345 8.14927L19.6832 9.44828C20.1458 8.93271 20.8173 8.6084 21.5645 8.6084C22.1761 8.6084 22.7369 8.82564 23.174 9.18719ZM15.4615 7.77814C15.4615 8.34529 15.0018 8.80505 14.4346 8.80505C13.8675 8.80505 13.4077 8.34529 13.4077 7.77814C13.4077 7.21099 13.8675 6.75122 14.4346 6.75122C15.0018 6.75122 15.4615 7.21099 15.4615 7.77814ZM21.5645 12.1622C22.1317 12.1622 22.5914 11.7025 22.5914 11.1353C22.5914 10.5682 22.1317 10.1084 21.5645 10.1084C20.9974 10.1084 20.5376 10.5682 20.5376 11.1353C20.5376 11.7025 20.9974 12.1622 21.5645 12.1622ZM29.7213 5.25079C29.7213 5.81794 29.2615 6.27771 28.6944 6.27771C28.1272 6.27771 27.6675 5.81794 27.6675 5.25079C27.6675 4.68364 28.1272 4.22388 28.6944 4.22388C29.2615 4.22388 29.7213 4.68364 29.7213 5.25079Z" fill="white"/>
<path fill-rule="evenodd" clip-rule="evenodd" d="M7.30475 13.9518C8.70033 13.9518 9.83167 12.8204 9.83167 11.4249C9.83167 10.0293 8.70033 8.89795 7.30475 8.89795C5.90917 8.89795 4.77783 10.0293 4.77783 11.4249C4.77783 12.8204 5.90917 13.9518 7.30475 13.9518ZM7.30475 12.4518C7.8719 12.4518 8.33166 11.992 8.33166 11.4249C8.33166 10.8577 7.8719 10.3979 7.30475 10.3979C6.7376 10.3979 6.27783 10.8577 6.27783 11.4249C6.27783 11.992 6.7376 12.4518 7.30475 12.4518Z" fill="white"/>
<path d="M7.29289 16.2339C7.70711 16.2339 8.04289 16.5697 8.04289 16.9839V20.071C8.04289 20.4853 7.70711 20.821 7.29289 20.821C6.87868 20.821 6.54289 20.4853 6.54289 20.071V16.9839C6.54289 16.5697 6.87868 16.2339 7.29289 16.2339Z" fill="white"/>
<path d="M22.3192 16.9839C22.3192 16.5697 21.9835 16.2339 21.5692 16.2339C21.155 16.2339 20.8192 16.5697 20.8192 16.9839V20.071C20.8192 20.4853 21.155 20.821 21.5692 20.821C21.9835 20.821 22.3192 20.4853 22.3192 20.071V16.9839Z" fill="white"/>
<path d="M28.7066 10.0712C29.1208 10.0712 29.4566 10.407 29.4566 10.8212V20.071C29.4566 20.4852 29.1208 20.821 28.7066 20.821C28.2924 20.821 27.9566 20.4852 27.9566 20.071V10.8212C27.9566 10.407 28.2924 10.0712 28.7066 10.0712Z" fill="white"/>
<path d="M15.1812 13.9518C15.1812 13.5376 14.8454 13.2018 14.4312 13.2018C14.017 13.2018 13.6812 13.5376 13.6812 13.9518V20.0712C13.6812 20.4854 14.017 20.8212 14.4312 20.8212C14.8454 20.8212 15.1812 20.4854 15.1812 20.0712V13.9518Z" fill="white"/>
<path fill-rule="evenodd" clip-rule="evenodd" d="M0.64624 2.14184C0.64624 1.03728 1.54167 0.141846 2.64624 0.141846H33.354C34.4586 0.141846 35.354 1.03728 35.354 2.14185V23.0674C35.354 24.1719 34.4586 25.0674 33.354 25.0674H18.75V30.3582H24.8506C25.2648 30.3582 25.6006 30.6939 25.6006 31.1082C25.6006 31.5224 25.2648 31.8582 24.8506 31.8582H18.0048L18 31.8582L17.9952 31.8582H11.1489C10.7347 31.8582 10.3989 31.5224 10.3989 31.1082C10.3989 30.6939 10.7347 30.3582 11.1489 30.3582H17.25V25.0674L2.64624 25.0674C1.54167 25.0674 0.64624 24.1719 0.64624 23.0674V2.14184ZM2.64624 1.64185H33.354C33.6302 1.64185 33.854 1.86571 33.854 2.14185V23.0674C33.854 23.3435 33.6302 23.5674 33.354 23.5674H2.64624C2.3701 23.5674 2.14624 23.3435 2.14624 23.0674V2.14184C2.14624 1.8657 2.3701 1.64185 2.64624 1.64185Z" fill="white"/>
</svg>
