<svg width="276" height="220" viewBox="0 0 276 220" fill="none" xmlns="http://www.w3.org/2000/svg">
<path d="M230.556 5H49.614L21 121.255V124.551V166.377H253.118V124.551V121.032L230.556 5ZM84.555 40.468C84.843 38.885 85.48 37.302 86.497 35.66C87.607 33.93 89.091 32.304 90.859 30.912L90.718 30.83L96.01 27.545C99.893 25.152 106.089 25.087 109.82 27.387L128.617 38.961C132.354 41.262 132.234 45.08 128.367 47.473L125.24 49.398L118.893 53.303C119.219 53.667 119.551 54.043 119.905 54.429C123.217 58.117 127.764 63.164 136.402 68.489C145.012 73.792 153.192 76.588 159.17 78.633C159.817 78.856 160.443 79.074 161.036 79.269L170.511 73.438C174.384 71.056 180.59 70.98 184.321 73.269L203.108 84.843C206.845 87.155 206.725 90.967 202.852 93.355L197.495 96.591L197.381 96.537C195.113 97.63 192.508 98.539 189.717 99.213C187.112 99.833 184.555 100.23 181.885 100.431C180.656 100.513 152.242 102.155 116.981 80.426C91.479 64.726 82.08 53.141 84.555 40.468ZM247.216 160.487H26.885V124.557H247.216V160.487Z" stroke="#ED0100" stroke-width="10"/>
<line x1="139" y1="163" x2="139" y2="193" stroke="#ED0100" stroke-width="8"/>
<line x1="139" y1="163" x2="139" y2="193" stroke="#ED0100" stroke-width="8"/>
<line x1="139" y1="163" x2="139" y2="193" stroke="#ED0100" stroke-width="8"/>
<line x1="139" y1="163" x2="139" y2="193" stroke="#ED0100" stroke-width="8"/>
<line x1="139" y1="163" x2="139" y2="193" stroke="#ED0100" stroke-width="8"/>
<line x1="139" y1="163" x2="139" y2="193" stroke="#ED0100" stroke-width="8"/>
<line x1="139" y1="163" x2="139" y2="193" stroke="#ED0100" stroke-width="8"/>
<line x1="139" y1="163" x2="139" y2="193" stroke="#ED0100" stroke-width="8"/>
<line x1="139" y1="163" x2="139" y2="193" stroke="#ED0100" stroke-width="8"/>
<line x1="139" y1="163" x2="139" y2="193" stroke="#ED0100" stroke-width="8"/>
<line x1="139" y1="163" x2="139" y2="193" stroke="#ED0100" stroke-width="8"/>
<line x1="139" y1="163" x2="139" y2="193" stroke="#ED0100" stroke-width="8"/>
<rect x="114" y="197" width="47" height="19" rx="9.5" stroke="#ED0100" stroke-width="8"/>
<line x1="111" y1="206" x2="-3.49691e-07" y2="206" stroke="#ED0100" stroke-width="8"/>
<line x1="276" y1="206" x2="165" y2="206" stroke="#ED0100" stroke-width="8"/>
</svg>
